<svg xmlns="http://www.w3.org/2000/svg" width="561.181" height="126.8" viewBox="-30.591 11.6 561.181 126.8" style="background:rgba(0, 0, 0, 0)" preserveAspectRatio="xMidYMid" xmlns:v="https://vecta.io/nano"><defs><linearGradient id="A" x1="0" x2="1" y1=".5" y2=".5"><stop offset="0" stop-color="#f88"/></linearGradient></defs><path d="M55.64 103.42h0q-.44-3.28-.64-5.28h0 0q-.32-2.64-2.28-16h0 0Q50.8 69.22 50.36 65.7h0 0q.12-.36.46-.66h0 0q.34-.3.62-.3h0 0q.56 0 .76.68h0 0q.32 3.36.98 7.94h0 0q.66 4.58 1.78 11.78h0 0q1.6 10.16 2.24 15.4h0 0q6.96-10.96 9.72-19.16h0 0q1.12-3.28 1.56-5.28h0 0q.44-2 .44-4.12h0 0q0-1.32-.18-3.24h0 0q-.18-1.92-.42-4.16h0 0q0-.48.34-.86h0 0q.34-.38.7-.38h0 0q.68 0 .8.68h0 0q.52 3.12.52 6.24h0 0q0 5.36-1.7 10.74h0 0q-1.7 5.38-5.34 12.18h0 0q-3.32 6.04-6.48 10.16h0 0q-.52.64-.92.64h0 0q-.4 0-.6-.56h0zm22.48.28h0q-2.08 0-3.1-1.64h0 0Q74 100.42 74 98.14h0 0q0-3.64 1.22-7.06h0 0q1.22-3.42 3.34-5.66h0 0q2.04-2.28 4.6-2.28h0 0q3.68 0 3.68 5.6h0 0q0 2.8-.92 5.72h0 0q-.92 2.92-2.38 5.2h0 0q-1.46 2.28-3.02 3.28h0 0q-1.2.76-2.4.76h0zm.32-1.8h0q1.24 0 2.78-2.16h0 0q1.54-2.16 2.58-5.36h0 0q1.08-3.2 1.08-5.44h0 0q0-2.32-.28-2.88h0 0q-.24-.6-.6-.84h0 0q-.36-.24-1.12-.24h0 0q-.84 0-1.76.64h0 0q-1.84 1.16-3.2 4h0 0q-2.12 4.24-2.12 8.24h0 0q0 2.72 1.56 3.76h0 0q.56.28 1.08.28h0zm14.76 1.6h0q-1.4 0-2.1-.72h0 0q-.7-.72-.7-2.6h0 0q0-1.04.24-2.4h0L91 95.5l.44-1.88.24-1.08.52-2.2h0q.08-.52.36-1.68h0l.2-.8.36-1.72.24-1.2h0q-1.56 0-2.88.2h0 0q-.8-.12-.8-.68h0 0q0-.4.32-.76h0 0q.32-.36.76-.4h0l2.88.08h0q0 0 .2-1h0 0q.08-.8.32-1.84h0 0q.24-1.04.6-1.84h0 0q.36-.88 1.04-.88h0 0q.64 0 .64.72h0v.24h0q-.16.8-.28 1.16h0l-.68 3.4h2.88 0q1.52 0 1.88.24h0 0q.32.24.32.6h0 0q0 .64-.58.82h0 0q-.58.18-1.98.18h0 0q-1.28 0-2.84-.12h0 0q-.24 1.32-1.64 7.32h0 0q-1.28 5.44-1.28 6.88h0 0q0 1.56.36 2.04h0 0q.2.32.84.32h0 0q.56 0 .98-.3h0 0q.42-.3.86-.82h0 0q.44-.56.76-.84h0 0q.32-.28.68-.28h0 0q.8 0 .8.8h0 0q0 .4-.8 1.32h0 0q-.8.92-1.52 1.48h0 0q-.64.52-2 .52h0zm12.8.24h0q-1.28 0-2-.42h0 0q-.72-.42-1.16-1.3h0 0q-.84-1.56-.84-3.76h0 0q0-3.84 1.16-7.3h0 0q1.16-3.46 3.16-5.82h0 0q1.92-2.24 4.2-2.24h0 0q1.2 0 1.9.98h0 0q.7.98.7 2.38h0 0q0 2.44-1.26 4.24h0 0q-1.26 1.8-3.38 3h0 0q-1.84 1.08-4.48 2.16h0l-.08 2.88h0q0 3.36 2.04 3.36h0 0q.84 0 1.62-.32h0 0q.78-.32 1.7-.88h0 0q1.08-.64 1.52-.64h0 0q.68 0 .68.72h0 0q0 .52-.98 1.24h0 0q-.98.72-2.3 1.22h0 0q-1.32.5-2.2.5h0zm-1.68-10h0q2.68-1.08 4.08-1.92h0 0q1.4-.84 2.14-2.12h0 0q.74-1.28.74-3.36h0 0q0-1.56-1.32-1.56h0 0q-1.16 0-2.72 2.12h0 0q-1.64 2.12-2.64 5.56h0 0q-.28.96-.28 1.28h0zm22.76 26.28h0q-1.28 0-2.26-.68h0 0q-.98-.68-1.5-1.7h0 0q-.52-1.02-.52-2.02h0 0q0-2.44 1.32-4.36h0 0q.96-1.4 3.2-3h0 0q2.04-1.52 2.4-1.68h0l3.48-2.56h0q.12-.56 1.48-4.96h0l.52-1.64h0q.28-1 .56-1.84h0 0q.28-.84.4-1.4h0 0q-1.72 5-4.12 7.64h0 0q-1.6 1.84-3.12 1.84h0 0q-1.52 0-2.46-1.22h0 0q-.94-1.22-.94-3.34h0 0q0-3.36 1.92-10.6h0 0q.96-3.6.96-3.88h0 0q-.04-.16-.04-.36h0 0q0-.28.12-.44h0 0q.56-.76 1.32-.76h0 0q.76 0 .76.8h0 0q0 .8-1.48 6.72h0 0q-1.48 5.92-1.48 8.04h0 0q0 2.08.52 2.6h0 0q.48.52 1.2.52h0 0q1.52 0 3.24-2.56h0 0q1.36-2 2.42-5.38h0 0q1.06-3.38 1.98-7.14h0l.2-.8h0q.44-1.8.76-2.24h0 0q.32-.48.96-.48h0 0q.64 0 .64.48h0 0q0 .56-1.72 8.16h0 0q-1.68 7.08-2.4 10.56h0 0q.8-.68 1.4-1.28h0 0q.8-.8 1.18-1.12h0 0q.38-.32.7-.32h0 0q.76 0 .76.68h0 0q0 .36-.32.8h0 0q-2.16 1.92-4.16 3.44h0 0q-.96 5.28-1.8 8.38h0 0q-.84 3.1-2.3 5.1h0 0q-1.46 2-3.78 2h0zm.04-1.92h0q2.44 0 4.16-5.64h0l.92-3.52.52-2.6h0q-1.56 1.2-3.04 2.2h0 0q-1.48 1-2.42 1.8h0 0q-.94.8-1.68 2.04h0 0q-.74 1.24-.74 2.84h0 0q0 1.64 1.08 2.52h0 0q.4.36 1.2.36h0zm19.04-14.4h0q-2.08 0-3.1-1.64h0 0q-1.02-1.64-1.02-3.92h0 0q0-3.64 1.22-7.06h0 0q1.22-3.42 3.34-5.66h0 0q2.04-2.28 4.6-2.28h0 0q3.68 0 3.68 5.6h0 0q0 2.8-.92 5.72h0 0q-.92 2.92-2.38 5.2h0 0q-1.46 2.28-3.02 3.28h0 0q-1.2.76-2.4.76h0zm.32-1.8h0q1.24 0 2.78-2.16h0 0q1.54-2.16 2.58-5.36h0 0q1.08-3.2 1.08-5.44h0 0q0-2.32-.28-2.88h0 0q-.24-.6-.6-.84h0 0q-.36-.24-1.12-.24h0 0q-.84 0-1.76.64h0 0q-1.84 1.16-3.2 4h0 0q-2.12 4.24-2.12 8.24h0 0q0 2.72 1.56 3.76h0 0q.56.28 1.08.28h0zm21.28 2.4h0q-1.2 0-1.2-3.2h0 0q0-1.68.28-3.36h0 0q.28-1.68.88-4.36h0l.32-1.48h0q-.68 1.32-1.6 3.36h0 0q-1.64 3.36-3.3 5.88h0 0q-1.66 2.52-3.3 2.52h0 0q-2.16 0-2.16-4.28h0 0q0-5.32 1.72-12.44h0l.64-2.44h0q.36-1.32 1.24-1.32h0 0q.48 0 .68.68h0 0q-.08.72-.32 1.72h0 0q-.24 1-.32 1.44h0 0q-.76 2.92-1.24 5.82h0 0q-.48 2.9-.56 7.06h0 0q0 1.6.52 1.6h0 0q.76 0 2.04-1.78h0 0q1.28-1.78 3.16-5.42h0 0q1.84-3.96 3.52-7.14h0 0q1.68-3.18 2.64-3.18h0 0q.68 0 .68.76h0 0q0 .56-1 3.16h0 0q-.76 1.96-1 2.84h0 0q-1.4 4.8-1.76 10.48h0 0q0 .52.1.78h0 0q.1.26.36.54h0 0q.26.28.26.68h0 0q0 .4-.44.74h0 0q-.44.34-.84.34h0zm7.48-.32h0q-.56 0-.56-.72h0l.92-4.76 1.68-8.44h0q1.12-5.6 1.12-5.6h0 0q.16-.88.44-1.28h0 0q.28-.4.72-.4h0 0q.4 0 .62.2h0 0q.22.2.22.72h0 0q0 .92-.56 2.8h0 0q-.28.92-.4 1.56h0 0q-.16.56-.36 1.26h0 0q-.2.7-.44 1.62h0 0q1.08-2.44 2.04-3.9h0 0q.96-1.46 2.4-2.78h0 0q1.36-1.16 2.72-1.16h0 0q1 0 1.68.42h0 0q.68.42.68.98h0 0q0 .44-.32.7h0 0q-.32.26-.8.26h0 0q-.36 0-.68-.16h0 0q-.24-.2-.64-.2h0 0q-.52 0-1.52.72h0 0q-1.88 1.36-3.18 3.58h0 0q-1.3 2.22-2.04 4.48h0 0q-.74 2.26-1.58 5.46h0l-.36 1.48h0q-.6 3.16-1.8 3.16h0zm13.84 15.8h0q-1.44 0-3.26-.56h0 0q-1.82-.56-3.1-1.38h0 0q-1.28-.82-1.28-1.54h0 0q0-.4.36-.64h0 0q.36-.24 1.04-.2h0 0q2.16 1.56 3.32 1.98h0 0q1.16.42 3.08.42h0 0q3.52 0 5.72-2.14h0 0q2.2-2.14 3.48-5.82h0 0q.84-2.4 1.72-7.74h0 0q.88-5.34 2-13.1h0l.6-3.96-3.72.08h0q-.8-.08-.8-.72h0 0q0-.56.38-.78h0 0q.38-.22 1.28-.28h0 0q.9-.06 3.26-.06h0 0q1.24-5 2.38-7.92h0 0q1.14-2.92 3.02-4.58h0 0q1.88-1.66 4.88-1.66h0 0q3.32 0 3.32 1.2h0 0q0 .6-.8 1.16h0 0q-1.08-.2-3.2-.2h0 0q-2.8 0-4.82 3.34h0 0q-2.02 3.34-2.82 8.66h0l5.08.04h0q1.12 0 1.12.76h0 0q0 .96-1.92 1.04h0-1.24-3.44 0q-.52 2.88-2.08 13.28h0l-1.12 7.24h0q-1.4 8.56-5.56 11.96h0 0q-2.52 2.12-6.88 2.12h0zm36.48-16.36h0q-.92 0-1.7-.98h0 0q-.78-.98-.78-2.1h0 0q0-2.48 1.32-8.4h0 0q-1 2.16-2.58 4.42h0 0q-1.58 2.26-3.1 3.98h0 0q-1.52 1.72-2.24 2.24h0 0q-1 .76-2.2.76h0 0q-2.28 0-2.28-2.88h0 0q0-2.8 2.12-6.98h0 0q2.12-4.18 5.04-7.26h0 0q2.92-3.04 4.72-3.04h0 0q1.84 0 2.08 1.6h0 0q.12.48.12 1.04h0 0q.2-.12.44-.12h0 0q.92 0 .92.88h0v.16l-.48 1.76h0q-.56 2-1.16 5.92h0 0q-.6 3.92-.6 6.52h0l.4.24h0q.96.6.96 1.2h0 0q0 .4-.28.72h0 0q-.28.32-.72.32h0zm-10.96-2.16h0q.44 0 .72-.28h0 0q4.08-3.48 7.24-9.64h0 0q1.36-2.56 1.7-3.36h0 0q.34-.8.34-1.56h0 0q0-.4-.2-.72h0 0q-.2-.32-.52-.32h0 0q-.4 0-1.04.36h0 0q-1.6.84-3.78 3.56h0 0q-2.18 2.72-3.58 5.76h0 0q-1.48 3.08-1.48 5.48h0 0q0 .72.6.72h0zm19.84 2.2h0q-1 0-1.12-.84h0 0q-.68-4.6-1.12-9.08h0 0q-.64-5.4-1.24-9.96h0 0q.12-.36.46-.66h0 0q.34-.3.62-.3h0 0q.56 0 .76.68h0 0q.44 4.16.96 8.2h0 0q.48 3.4 1.12 9.04h0 0q3.24-5.08 4.84-9.04h0 0q1.6-3.96 1.6-7.92h0 0q0-4.2-2.48-5.16h0 0q-.72-.28-1.28-.32h0 0q-.6-.08-.82-.22h0 0q-.22-.14-.22-.46h0 0q0-.84 1.12-1h0 0q5.56.4 5.56 6.84h0 0q0 6.44-4.4 14.36h0 0q-1.48 2.68-3.28 5.04h0 0q-.6.8-1.08.8h0zm13.88.24h0q-2.08 0-3.1-1.64h0 0q-1.02-1.64-1.02-3.92h0 0q0-3.64 1.22-7.06h0 0q1.22-3.42 3.34-5.66h0 0q2.04-2.28 4.6-2.28h0 0q3.68 0 3.68 5.6h0 0q0 2.8-.92 5.72h0 0q-.92 2.92-2.38 5.2h0 0q-1.46 2.28-3.02 3.28h0 0q-1.2.76-2.4.76h0zm.32-1.8h0q1.24 0 2.78-2.16h0 0q1.54-2.16 2.58-5.36h0 0q1.08-3.2 1.08-5.44h0 0q0-2.32-.28-2.88h0 0q-.24-.6-.6-.84h0 0q-.36-.24-1.12-.24h0 0q-.84 0-1.76.64h0 0q-1.84 1.16-3.2 4h0 0Q246 93.86 246 97.86h0 0q0 2.72 1.56 3.76h0 0q.56.28 1.08.28h0zm21.28 2.4h0q-1.2 0-1.2-3.2h0 0q0-1.68.28-3.36h0 0q.28-1.68.88-4.36h0l.32-1.48h0q-.68 1.32-1.6 3.36h0 0q-1.64 3.36-3.3 5.88h0 0q-1.66 2.52-3.3 2.52h0 0q-2.16 0-2.16-4.28h0 0q0-5.32 1.72-12.44h0l.64-2.44h0q.36-1.32 1.24-1.32h0 0q.48 0 .68.68h0 0q-.08.72-.32 1.72h0 0q-.24 1-.32 1.44h0 0q-.76 2.92-1.24 5.82h0 0q-.48 2.9-.56 7.06h0 0q0 1.6.52 1.6h0 0q.76 0 2.04-1.78h0 0q1.28-1.78 3.16-5.42h0 0q1.84-3.96 3.52-7.14h0 0q1.68-3.18 2.64-3.18h0 0q.68 0 .68.76h0 0q0 .56-1 3.16h0 0q-.76 1.96-1 2.84h0 0q-1.4 4.8-1.76 10.48h0 0q0 .52.1.78h0 0q.1.26.36.54h0 0q.26.28.26.68h0 0q0 .4-.44.74h0 0q-.44.34-.84.34h0zm7.48-.32h0q-.56 0-.56-.72h0l.92-4.76 1.68-8.44h0q1.12-5.6 1.12-5.6h0 0q.16-.88.44-1.28h0 0q.28-.4.72-.4h0 0q.4 0 .62.2h0 0q.22.2.22.72h0 0q0 .92-.56 2.8h0 0q-.28.92-.4 1.56h0 0q-.16.56-.36 1.26h0 0q-.2.7-.44 1.62h0 0q1.08-2.44 2.04-3.9h0 0q.96-1.46 2.4-2.78h0 0q1.36-1.16 2.72-1.16h0 0q1 0 1.68.42h0 0q.68.42.68.98h0 0q0 .44-.32.7h0 0q-.32.26-.8.26h0 0q-.36 0-.68-.16h0 0q-.24-.2-.64-.2h0 0q-.52 0-1.52.72h0 0q-1.88 1.36-3.18 3.58h0 0q-1.3 2.22-2.04 4.48h0 0q-.74 2.26-1.58 5.46h0l-.36 1.48h0q-.6 3.16-1.8 3.16h0zm14.64-.24h0q-1.36 0-1.36-2.2h0 0q0-.56.2-1h0 0q.2-.68.36-1.56h0l.6-2.68.8-3.52h0q.4-1.96.96-4.4h0 0q.08-.24.16-.8h0 0q.4-1.72.4-2h0v-.4h0q0-.32-.28-1.32h0 0q0-.48.34-.88h0 0q.34-.4.82-.4h0 0q.44 0 .76.6h0 0q.32.6.32 1.32h0 0q0 .8-1.84 8.64h0 0q-1.84 7.84-1.84 8.32h0 0q0 .44.4.44h0 0q.2 0 .72-.52h0 0q.48-.48.8-.48h0 0q.64 0 .64.8h0 0q0 .48-.56.96h0 0q-.56.48-1.28.78h0 0q-.72.3-1.12.3h0zm4.04-24.16h0q-.64 0-.96-.16h0-.16 0q-1.16 0-1.16-1.36h0 0q0-.68.58-1.24h0 0q.58-.56 1.26-.56h0 0q.68 0 1.28.48h0 0q.68.68.68 1.32h0 0q0 .6-.46 1.06h0 0q-.46.46-1.06.46h0zm7.08 23.92h0q-1.4 0-2.1-.72h0 0q-.7-.72-.7-2.6h0 0q0-1.04.24-2.4h0l.36-2.28.44-1.88.24-1.08.52-2.2h0q.08-.52.36-1.68h0l.2-.8.36-1.72.24-1.2h0q-1.56 0-2.88.2h0 0q-.8-.12-.8-.68h0 0q0-.4.32-.76h0 0q.32-.36.76-.4h0l2.88.08h0q0 0 .2-1h0 0q.08-.8.32-1.84h0 0q.24-1.04.6-1.84h0 0q.36-.88 1.04-.88h0 0q.64 0 .64.72h0v.24h0q-.16.8-.28 1.16h0l-.68 3.4h2.88 0q1.52 0 1.88.24h0 0q.32.24.32.6h0 0q0 .64-.58.82h0 0q-.58.18-1.98.18h0 0q-1.28 0-2.84-.12h0 0q-.24 1.32-1.64 7.32h0 0q-1.28 5.44-1.28 6.88h0 0q0 1.56.36 2.04h0 0q.2.32.84.32h0 0q.56 0 .98-.3h0 0q.42-.3.86-.82h0 0q.44-.56.76-.84h0 0q.32-.28.68-.28h0 0q.8 0 .8.8h0 0q0 .4-.8 1.32h0 0q-.8.92-1.52 1.48h0 0q-.64.52-2 .52h0zm12.8.24h0q-1.28 0-2-.42h0 0q-.72-.42-1.16-1.3h0 0q-.84-1.56-.84-3.76h0 0q0-3.84 1.16-7.3h0 0q1.16-3.46 3.16-5.82h0 0q1.92-2.24 4.2-2.24h0 0q1.2 0 1.9.98h0 0q.7.98.7 2.38h0 0q0 2.44-1.26 4.24h0 0q-1.26 1.8-3.38 3h0 0q-1.84 1.08-4.48 2.16h0l-.08 2.88h0q0 3.36 2.04 3.36h0 0q.84 0 1.62-.32h0 0q.78-.32 1.7-.88h0 0q1.08-.64 1.52-.64h0 0q.68 0 .68.72h0 0q0 .52-.98 1.24h0 0q-.98.72-2.3 1.22h0 0q-1.32.5-2.2.5h0zm-1.68-10h0q2.68-1.08 4.08-1.92h0 0q1.4-.84 2.14-2.12h0 0q.74-1.28.74-3.36h0 0q0-1.56-1.32-1.56h0 0q-1.16 0-2.72 2.12h0 0q-1.64 2.12-2.64 5.56h0 0q-.28.96-.28 1.28h0zm29.48 10.04h0q-2.76 0-5.06-.92h0 0q-2.3-.92-3.64-2.7h0 0q-1.34-1.78-1.34-4.22h0 0q0-3.8 2.28-6.56h0 0q.68-.84 1.48-1.6h0 0q.8-.76 1.28-.76h0 0q.76 0 .76.68h0 0q0 .32-.16.56h0 0q-2 1.8-2.86 3.48h0 0q-.86 1.68-.86 3.64h0 0q0 3.36 2.38 5h0 0q2.38 1.64 5.94 1.64h0 0q2.28 0 4.02-1.18h0 0q1.74-1.18 2.68-3.18h0 0q.94-2 .94-4.32h0 0q0-3.52-3.24-11h0 0q-3.24-7.56-3.24-10.52h0 0q0-3.08 1.48-5.12h0 0q1.48-2.04 4.24-2.04h0 0q2.12 0 3.54 1.06h0 0q1.42 1.06 2.1 2.4h0 0q.68 1.34.68 2.18h0 0q0 .4-.34.7h0 0q-.34.3-.7.3h0 0q-.6 0-.72-.72h0 0q-.28-1.84-1.52-3.04h0 0q-1.24-1.2-3.04-1.2h0 0q-1.8 0-2.8 1.26h0 0q-1 1.26-1 3.14h0 0q0 2.64.8 5.14h0 0q.8 2.5 2.44 6.3h0 0q1.6 3.64 2.42 6.18h0 0q.82 2.54.82 5.18h0 0q0 2.56-1 4.9h0 0q-1 2.34-3.2 3.84h0 0q-2.2 1.5-5.56 1.5h0zm26.64.52h0q-1.2 0-1.2-3.2h0 0q0-1.68.28-3.36h0 0q.28-1.68.88-4.36h0l.32-1.48h0q-.68 1.32-1.6 3.36h0 0q-1.64 3.36-3.3 5.88h0 0q-1.66 2.52-3.3 2.52h0 0q-2.16 0-2.16-4.28h0 0q0-5.32 1.72-12.44h0l.64-2.44h0q.36-1.32 1.24-1.32h0 0q.48 0 .68.68h0 0q-.08.72-.32 1.72h0 0q-.24 1-.32 1.44h0 0q-.76 2.92-1.24 5.82h0 0q-.48 2.9-.56 7.06h0 0q0 1.6.52 1.6h0 0q.76 0 2.04-1.78h0 0q1.28-1.78 3.16-5.42h0 0q1.84-3.96 3.52-7.14h0 0q1.68-3.18 2.64-3.18h0 0q.68 0 .68.76h0 0q0 .56-1 3.16h0 0q-.76 1.96-1 2.84h0 0q-1.4 4.8-1.76 10.48h0 0q0 .52.1.78h0 0q.1.26.36.54h0 0q.26.28.26.68h0 0q0 .4-.44.74h0 0q-.44.34-.84.34h0zm11.92-.56h0q-1.76 0-2.7-1.56h0 0q-.94-1.56-.94-3.88h0 0q0-1.72.2-3.38h0 0q.2-1.66.6-3.94h0l.16-1.04h0q.6-3.76 1-5.84h0 0q.08-.52.16-.92h0 0q.08-.4.12-.72h0 0q.36-1.88.64-3.04h0 0q.2-1.2 1.04-5.24h0 0q.64-2.84 1.64-8.6h0 0q.28-.64.8-.64h0 0q1.04 0 1.04.88h0l-.08.28h0q-.96 6.48-2.24 12.24h0 0q-1.44 6.44-2.12 9.84h0 0q1.36-2.44 2.6-3.7h0 0q1.24-1.26 2.72-1.26h0 0q1.48 0 2.38 1.14h0 0q.9 1.14.9 2.62h0 0q0 3.08-.94 7.02h0 0q-.94 3.94-2.46 6.42h0 0q-2 3.32-4.52 3.32h0zm0-2.04h0q1.44 0 2.88-2.4h0 0q1.92-3.08 2.72-7.96h0 0q.2-1.52.2-2.88h0 0q0-1.64-.3-2.46h0 0q-.3-.82-1.1-.82h0 0q-.84 0-2.14 1.42h0 0q-1.3 1.42-2.34 3.52h0 0q-1.04 2.1-1.24 3.94h0 0q-.28 2.68-.28 4.24h0 0q0 3.4 1.6 3.4h0zm-.2 18.2h0q-2.2 0-3.6-.76h0 0q-.44-.24-.44-.6h0 0q0-.36.3-.72h0 0q.3-.36.7-.44h0 0q1.36.52 3.4.52h0 0q4.36 0 7.04-4.8h0 0q2.68-4.8 3.96-11.02h0 0q1.28-6.22 2.4-14.94h0 0q.12-1.04.22-1.84h0 0q.1-.8.18-1.36h0 0q.12-.44.44-.68h0 0q.32-.24.68-.24h0 0q.68 0 .68.72h0l-.84 6h0q-2.24 15.64-4.12 21.44h0 0q-1.52 4.72-4.3 6.72h0 0q-2.78 2-6.7 2h0zm15.76-40.32h0q-.64 0-.96-.16h0-.16 0q-1.16 0-1.16-1.36h0 0q0-.68.58-1.24h0 0q.58-.56 1.26-.56h0 0q.68 0 1.28.48h0 0q.68.68.68 1.32h0 0q0 .6-.46 1.06h0 0q-.46.46-1.06.46h0zm6.92 24.16h0q-1.28 0-2-.42h0 0q-.72-.42-1.16-1.3h0 0q-.84-1.56-.84-3.76h0 0q0-3.84 1.16-7.3h0 0q1.16-3.46 3.16-5.82h0 0q1.92-2.24 4.2-2.24h0 0q1.2 0 1.9.98h0 0q.7.98.7 2.38h0 0q0 2.44-1.26 4.24h0 0q-1.26 1.8-3.38 3h0 0q-1.84 1.08-4.48 2.16h0l-.08 2.88h0q0 3.36 2.04 3.36h0 0q.84 0 1.62-.32h0 0q.78-.32 1.7-.88h0 0q1.08-.64 1.52-.64h0 0q.68 0 .68.72h0 0q0 .52-.98 1.24h0 0q-.98.72-2.3 1.22h0 0q-1.32.5-2.2.5h0zm-1.68-10h0q2.68-1.08 4.08-1.92h0 0q1.4-.84 2.14-2.12h0 0q.74-1.28.74-3.36h0 0q0-1.56-1.32-1.56h0 0q-1.16 0-2.72 2.12h0 0q-1.64 2.12-2.64 5.56h0 0q-.28.96-.28 1.28h0zm14.48 10.08h0q-1.92 0-3.02-1.42h0 0q-1.1-1.42-1.1-3.42h0 0q0-3.52 1.3-7.28h0 0q1.3-3.76 3.42-6.28h0 0q2.08-2.52 4.48-2.52h0 0q1.72 0 2.24 1.24h0 0q.12.2.2.42h0 0q.08.22.16.42h0 0q.2.56.4.64h0 0q.16.4.16.6h0 0q0 .36-.34.68h0 0q-.34.32-.74.32h0 0q-.84 0-1.08-1.24h0 0q-.24-1.24-1.32-1.24h0 0q-1.44 0-3.04 2.22h0 0q-1.6 2.22-2.76 5.62h0 0q-1.12 3.2-1.12 5.72h0 0q0 3.56 2.6 3.56h0 0q1.32 0 2.44-1.24h0 0q.12-.16.44-.54h0 0q.32-.38.6-.56h0 0q.28-.18.52-.18h0 0q.76 0 .76.68h0 0q0 .8-.76 1.7h0 0q-.76.9-1.96 1.5h0 0q-1.2.6-2.48.6h0zm13.4-.32h0q-1.4 0-2.1-.72h0 0q-.7-.72-.7-2.6h0 0q0-1.04.24-2.4h0l.36-2.28.44-1.88.24-1.08.52-2.2h0q.08-.52.36-1.68h0l.2-.8.36-1.72.24-1.2h0q-1.56 0-2.88.2h0 0q-.8-.12-.8-.68h0 0q0-.4.32-.76h0 0q.32-.36.76-.4h0l2.88.08h0q0 0 .2-1h0 0q.08-.8.32-1.84h0 0q.24-1.04.6-1.84h0 0q.36-.88 1.04-.88h0 0q.64 0 .64.72h0v.24h0q-.16.8-.28 1.16h0l-.68 3.4h2.88 0q1.52 0 1.88.24h0 0q.32.24.32.6h0 0q0 .64-.58.82h0 0q-.58.18-1.98.18h0 0q-1.28 0-2.84-.12h0 0q-.24 1.32-1.64 7.32h0 0q-1.28 5.44-1.28 6.88h0 0q0 1.56.36 2.04h0 0q.2.32.84.32h0 0q.56 0 .98-.3h0 0q.42-.3.86-.82h0 0q.44-.56.76-.84h0 0q.32-.28.68-.28h0 0q.8 0 .8.8h0 0q0 .4-.8 1.32h0 0q-.8.92-1.52 1.48h0 0q-.64.52-2 .52h0zm8.68-3.12h0q0-.52.28-.72h0 0q.28-.2.72-.28h0 0q.36 0 .58.24h0 0q.22.24.54.76h0 0q.32.56.54.78h0 0q.22.22.78.22h0 0q1.28 0 2.1-.8h0 0q.82-.8.82-1.88h0 0q0-1.16-.48-2.44h0 0q-.48-1.28-1.48-3.2h0 0q-2-3.6-2-5.72h0 0q0-2.12 1.06-3.4h0 0q1.06-1.28 2.9-1.28h0 0q1.28 0 2.44.72h0 0q1.16.72 1.16 1.8h0 0q0 1.16-.96 1.16h0 0q-.28 0-.46-.16h0 0q-.18-.16-.34-.38h0 0q-.16-.22-.24-.3h0 0q-.72-.84-1.6-.84h0 0q-1.96 0-1.96 2.28h0 0q0 1.24.48 2.52h0 0q.48 1.28 1.44 3.24h0 0q.92 1.92 1.4 3.2h0 0q.48 1.28.48 2.44h0 0q0 2.04-1.24 3.44h0 0q-1.24 1.4-3.48 1.68h0 0q-1.4 0-2.44-.98h0 0q-1.04-.98-1.04-2.1h0z" fill="url(#A)"/></svg>