<svg xml:space="preserve" width="724.48" height="90.69" xmlns="http://www.w3.org/2000/svg"><defs><linearGradient id="a" x1="1.79" x2="258.116" y1="-52.726" y2="-52.726" gradientUnits="userSpaceOnUse" gradientTransform="scale(2.8264 .3538)"><stop offset="0" stop-color="#ff4c4c"/><stop offset="1" stop-color="#ff4c4c"/></linearGradient></defs><path d="M13.5.13q-.7-5.25-1.02-8.45-.51-4.22-3.65-25.6-3.07-20.67-3.77-26.3.19-.58.73-1.06.55-.48.99-.48.9 0 1.22 1.09.51 5.37 1.57 12.7 1.05 7.33 2.85 18.85Q14.98-12.86 16-4.48q11.14-17.54 15.55-30.66 1.79-5.24 2.5-8.44.7-3.2.7-6.6 0-2.11-.29-5.18-.28-3.07-.67-6.66 0-.76.55-1.37.54-.61 1.12-.61 1.08 0 1.28 1.09.83 4.99.83 9.98 0 8.58-2.72 17.19-2.72 8.6-8.55 19.48Q20.99-6.59 15.94 0q-.84 1.02-1.48 1.02T13.5.13zm35.97.45q-3.33 0-4.96-2.63-1.63-2.62-1.63-6.27 0-5.82 1.95-11.3 1.95-5.47 5.35-9.05 3.26-3.65 7.36-3.65 5.88 0 5.88 8.96 0 4.48-1.47 9.15t-3.81 8.32q-2.33 3.65-4.83 5.25Q51.39.58 49.47.58zm.51-2.88q1.99 0 4.45-3.46 2.47-3.46 4.13-8.58 1.73-5.12 1.73-8.7 0-3.71-.45-4.61-.38-.96-.96-1.34-.58-.39-1.79-.39-1.35 0-2.82 1.03-2.94 1.85-5.12 6.4-3.39 6.78-3.39 13.18 0 4.35 2.5 6.02.89.45 1.72.45zM73.6.26q-2.24 0-3.36-1.16-1.12-1.15-1.12-4.16 0-1.66.38-3.84l.58-3.64.7-3.01.39-1.73.83-3.52q.13-.83.58-2.69l.32-1.28.57-2.75.39-1.92q-2.5 0-4.61.32-1.28-.19-1.28-1.09 0-.64.51-1.21.51-.58 1.22-.64l4.6.12.32-1.6q.13-1.28.52-2.94.38-1.66.96-2.94.57-1.41 1.66-1.41 1.02 0 1.02 1.15v.38q-.25 1.28-.44 1.86L77.25-32h4.61q2.43 0 3 .38.52.39.52.96 0 1.03-.93 1.32-.93.28-3.17.28-2.05 0-4.54-.19-.39 2.11-2.63 11.71-2.05 8.71-2.05 11.01 0 2.5.58 3.27.32.51 1.34.51.9 0 1.57-.48t1.38-1.31q.7-.9 1.21-1.35.52-.45 1.09-.45 1.28 0 1.28 1.28 0 .64-1.28 2.12-1.28 1.47-2.43 2.36-1.02.84-3.2.84zm20.48.38q-2.05 0-3.2-.67-1.15-.67-1.86-2.08-1.34-2.5-1.34-6.02 0-6.14 1.86-11.68 1.85-5.53 5.05-9.31 3.07-3.58 6.72-3.58 1.92 0 3.04 1.56 1.12 1.57 1.12 3.81 0 3.91-2.01 6.79-2.02 2.88-5.41 4.8-2.95 1.72-7.17 3.45l-.13 4.61q0 5.38 3.27 5.38 1.34 0 2.59-.52 1.25-.51 2.72-1.4 1.73-1.03 2.43-1.03 1.09 0 1.09 1.15 0 .84-1.57 1.99T97.6-.16q-2.11.8-3.52.8zm-2.69-16q4.29-1.73 6.53-3.07 2.24-1.35 3.42-3.39 1.19-2.05 1.19-5.38 0-2.5-2.11-2.5-1.86 0-4.36 3.4-2.62 3.39-4.22 8.89-.45 1.54-.45 2.05zm17.79 41.66q-2.3 0-5.21-.89-2.91-.9-4.96-2.21t-2.05-2.46q0-.64.58-1.03.57-.38 1.66-.32 3.46 2.5 5.31 3.17 1.86.67 4.93.67 5.63 0 9.15-3.42 3.52-3.43 5.57-9.31 1.34-3.84 2.75-12.39 1.41-8.54 3.2-20.96l.96-6.33-5.95.12q-1.28-.12-1.28-1.15 0-.89.61-1.25.61-.35 2.05-.44 1.44-.1 5.21-.1 1.99-8 3.81-12.67t4.83-7.33q3.01-2.66 7.81-2.66 5.31 0 5.31 1.92 0 .96-1.28 1.86-1.73-.32-5.12-.32-4.48 0-7.71 5.34-3.23 5.35-4.51 13.86l8.13.06q1.79 0 1.79 1.22 0 1.54-3.07 1.66h-7.49q-.83 4.61-3.33 21.25l-1.79 11.59q-2.24 13.69-8.9 19.13-4.03 3.39-11.01 3.39zM153.34.58q-3.32 0-4.96-2.63-1.63-2.62-1.63-6.27 0-5.82 1.95-11.3 1.96-5.47 5.35-9.05 3.26-3.65 7.36-3.65 5.89 0 5.89 8.96 0 4.48-1.48 9.15-1.47 4.67-3.8 8.32-2.34 3.65-4.84 5.25-1.92 1.22-3.84 1.22zm.52-2.88q1.98 0 4.44-3.46 2.47-3.46 4.13-8.58 1.73-5.12 1.73-8.7 0-3.71-.45-4.61-.38-.96-.96-1.34-.57-.39-1.79-.39-1.34 0-2.82 1.03-2.94 1.85-5.12 6.4-3.39 6.78-3.39 13.18 0 4.35 2.5 6.02.89.45 1.73.45zm18.81 3.32q-.89 0-.89-1.15l1.47-7.61 2.69-13.51 1.79-8.96q.25-1.41.7-2.05.45-.64 1.15-.64.64 0 1 .32.35.32.35 1.16 0 1.47-.9 4.48-.45 1.47-.64 2.49-.25.9-.57 2.02-.32 1.12-.71 2.59 1.73-3.9 3.27-6.24 1.53-2.34 3.84-4.45 2.17-1.85 4.35-1.85 1.6 0 2.69.67 1.08.67 1.08 1.57 0 .7-.51 1.12-.51.41-1.28.41-.57 0-1.09-.25-.38-.32-1.02-.32-.83 0-2.43 1.15-3.01 2.17-5.09 5.73-2.08 3.55-3.26 7.16-1.19 3.62-2.53 8.74l-.58 2.37q-.96 5.05-2.88 5.05zm40.77 25.67q-2.05 0-3.62-1.09-1.56-1.09-2.4-2.72-.83-1.63-.83-3.23 0-3.91 2.11-6.98 1.54-2.24 5.12-4.8 3.27-2.43 3.84-2.69l5.57-4.09q.19-.9 2.37-7.94l.83-2.62q.45-1.6.9-2.95.45-1.34.64-2.24-2.75 8-6.59 12.23-2.56 2.94-5 2.94-2.43 0-3.93-1.95-1.51-1.95-1.51-5.34 0-5.38 3.08-16.96 1.53-5.76 1.53-6.21-.06-.26-.06-.58 0-.45.19-.7.9-1.22 2.11-1.22 1.22 0 1.22 1.28t-2.37 10.75q-2.37 9.48-2.37 12.87 0 3.33.83 4.16.77.83 1.92.83 2.44 0 5.19-4.1 2.17-3.2 3.87-8.6 1.7-5.41 3.17-11.43l.32-1.28q.7-2.88 1.21-3.58.52-.77 1.54-.77t1.02.77q0 .89-2.75 13.05-2.69 11.33-3.84 16.9 1.28-1.09 2.24-2.05 1.28-1.28 1.89-1.79.61-.51 1.12-.51 1.22 0 1.22 1.09 0 .57-.52 1.28-3.45 3.07-6.65 5.5-1.54 8.45-2.88 13.41-1.35 4.96-3.68 8.16-2.34 3.2-6.05 3.2zm.06-3.07q3.91 0 6.66-9.03l1.47-5.63.83-4.16q-2.49 1.92-4.86 3.52t-3.87 2.88q-1.51 1.28-2.69 3.26-1.18 1.99-1.18 4.55 0 2.62 1.72 4.03.64.58 1.92.58zM243.97.58q-3.33 0-4.96-2.63-1.63-2.62-1.63-6.27 0-5.82 1.95-11.3 1.95-5.47 5.34-9.05 3.27-3.65 7.36-3.65 5.89 0 5.89 8.96 0 4.48-1.47 9.15t-3.81 8.32q-2.34 3.65-4.83 5.25-1.92 1.22-3.84 1.22zm.51-2.88q1.98 0 4.45-3.46 2.46-3.46 4.13-8.58 1.72-5.12 1.72-8.7 0-3.71-.44-4.61-.39-.96-.96-1.34-.58-.39-1.8-.39-1.34 0-2.81 1.03-2.95 1.85-5.12 6.4-3.39 6.78-3.39 13.18 0 4.35 2.49 6.02.9.45 1.73.45zm34.05 3.84q-1.92 0-1.92-5.12 0-2.69.45-5.38.44-2.69 1.4-6.98l.52-2.36q-1.09 2.11-2.56 5.37-2.63 5.38-5.28 9.41-2.66 4.03-5.28 4.03-3.46 0-3.46-6.85 0-8.51 2.75-19.9l1.03-3.9q.57-2.12 1.98-2.12.77 0 1.09 1.09-.13 1.15-.51 2.75-.39 1.6-.52 2.31-1.21 4.67-1.98 9.31-.77 4.64-.9 11.3 0 2.56.84 2.56 1.21 0 3.26-2.85t5.06-8.67q2.94-6.34 5.63-11.43t4.22-5.09q1.09 0 1.09 1.22 0 .9-1.6 5.06-1.22 3.13-1.6 4.54-2.24 7.68-2.82 16.77 0 .83.16 1.25.16.41.58.86.42.45.42 1.09 0 .64-.71 1.18-.7.55-1.34.55zm11.97-.52q-.9 0-.9-1.15l1.47-7.61 2.69-13.51 1.79-8.96q.26-1.41.71-2.05.44-.64 1.15-.64.64 0 .99.32t.35 1.16q0 1.47-.89 4.48-.45 1.47-.64 2.49-.26.9-.58 2.02-.32 1.12-.7 2.59 1.72-3.9 3.26-6.24 1.54-2.34 3.84-4.45 2.18-1.85 4.35-1.85 1.6 0 2.69.67 1.09.67 1.09 1.57 0 .7-.51 1.12-.52.41-1.28.41-.58 0-1.09-.25-.39-.32-1.03-.32-.83 0-2.43 1.15-3.01 2.17-5.09 5.73-2.08 3.55-3.26 7.16-1.18 3.62-2.53 8.74l-.57 2.37q-.96 5.05-2.88 5.05zm22.14 25.28q-2.3 0-5.22-.89-2.91-.9-4.96-2.21-2.04-1.31-2.04-2.46 0-.64.57-1.03.58-.38 1.67-.32 3.45 2.5 5.31 3.17 1.85.67 4.93.67 5.63 0 9.15-3.42 3.52-3.43 5.57-9.31 1.34-3.84 2.75-12.39 1.41-8.54 3.2-20.96l.96-6.33-5.95.12q-1.28-.12-1.28-1.15 0-.89.6-1.25.61-.35 2.05-.44 1.44-.1 5.22-.1 1.98-8 3.81-12.67 1.82-4.67 4.83-7.33t7.81-2.66q5.31 0 5.31 1.92 0 .96-1.28 1.86-1.73-.32-5.12-.32-4.48 0-7.71 5.34-3.24 5.35-4.52 13.86l8.13.06q1.79 0 1.79 1.22 0 1.54-3.07 1.66h-7.49q-.83 4.61-3.32 21.25l-1.8 11.59q-2.24 13.69-8.89 19.13-4.03 3.39-11.01 3.39zM371.01.13q-1.47 0-2.72-1.57-1.25-1.57-1.25-3.36 0-3.97 2.11-13.44-1.6 3.46-4.13 7.07-2.52 3.62-4.96 6.37-2.43 2.75-3.58 3.58Q354.88 0 352.96 0q-3.65 0-3.65-4.61 0-4.48 3.39-11.17 3.4-6.68 8.07-11.61 4.67-4.87 7.55-4.87 2.94 0 3.33 2.56.19.77.19 1.67.32-.19.7-.19 1.48 0 1.48 1.4v.26l-.77 2.82q-.9 3.2-1.86 9.47-.96 6.27-.96 10.43l.64.38q1.54.96 1.54 1.92 0 .64-.45 1.16-.45.51-1.15.51zm-17.54-3.46q.71 0 1.15-.45 6.53-5.56 11.59-15.42 2.17-4.1 2.72-5.38.54-1.28.54-2.49 0-.64-.32-1.15-.32-.52-.83-.52-.64 0-1.66.58-2.56 1.34-6.05 5.7-3.49 4.35-5.73 9.21-2.37 4.93-2.37 8.77 0 1.15.96 1.15zM385.22.19q-1.6 0-1.8-1.34-1.08-7.36-1.79-14.53-1.02-8.64-1.98-15.94.19-.57.73-1.05.55-.48 1-.48.89 0 1.21 1.09.71 6.65 1.54 13.12.77 5.44 1.79 14.46 5.18-8.13 7.74-14.46 2.56-6.34 2.56-12.68 0-6.72-3.96-8.25-1.16-.45-2.05-.51-.96-.13-1.31-.36-.36-.22-.36-.73 0-1.35 1.8-1.6 8.89.64 8.89 10.94 0 10.31-7.04 22.98-2.37 4.29-5.25 8.06-.96 1.28-1.72 1.28zm22.2.39q-3.32 0-4.96-2.63-1.63-2.62-1.63-6.27 0-5.82 1.95-11.3 1.96-5.47 5.35-9.05 3.26-3.65 7.36-3.65 5.89 0 5.89 8.96 0 4.48-1.48 9.15-1.47 4.67-3.8 8.32-2.34 3.65-4.84 5.25-1.92 1.22-3.84 1.22zm.52-2.88q1.98 0 4.44-3.46 2.47-3.46 4.13-8.58 1.73-5.12 1.73-8.7 0-3.71-.45-4.61-.38-.96-.96-1.34-.57-.39-1.79-.39-1.34 0-2.82 1.03-2.94 1.85-5.12 6.4-3.39 6.78-3.39 13.18 0 4.35 2.5 6.02.89.45 1.73.45zm34.04 3.84q-1.92 0-1.92-5.12 0-2.69.45-5.38t1.41-6.98l.51-2.36q-1.09 2.11-2.56 5.37-2.62 5.38-5.28 9.41-2.65 4.03-5.28 4.03-3.45 0-3.45-6.85 0-8.51 2.75-19.9l1.02-3.9q.58-2.12 1.99-2.12.76 0 1.08 1.09-.12 1.15-.51 2.75-.38 1.6-.51 2.31-1.22 4.67-1.98 9.31-.77 4.64-.9 11.3 0 2.56.83 2.56 1.22 0 3.27-2.85 2.04-2.85 5.05-8.67 2.95-6.34 5.63-11.43 2.69-5.09 4.23-5.09 1.09 0 1.09 1.22 0 .9-1.6 5.06-1.22 3.13-1.6 4.54-2.24 7.68-2.82 16.77 0 .83.16 1.25.16.41.58.86.41.45.41 1.09 0 .64-.7 1.18-.71.55-1.35.55zm11.97-.52q-.89 0-.89-1.15l1.47-7.61 2.69-13.51 1.79-8.96q.25-1.41.7-2.05.45-.64 1.15-.64.64 0 1 .32.35.32.35 1.16 0 1.47-.9 4.48-.45 1.47-.64 2.49-.25.9-.57 2.02-.32 1.12-.71 2.59 1.73-3.9 3.27-6.24 1.53-2.34 3.84-4.45 2.17-1.85 4.35-1.85 1.6 0 2.69.67 1.08.67 1.08 1.57 0 .7-.51 1.12-.51.41-1.28.41-.57 0-1.09-.25-.38-.32-1.02-.32-.83 0-2.43 1.15-3.01 2.17-5.09 5.73-2.08 3.55-3.26 7.16-1.19 3.62-2.53 8.74l-.58 2.37q-.96 5.05-2.88 5.05zm23.43-.38q-2.18 0-2.18-3.52 0-.9.32-1.6.32-1.09.58-2.5l.96-4.28 1.28-5.64q.64-3.13 1.53-7.04.13-.38.26-1.28.64-2.75.64-3.2v-.64q0-.51-.45-2.11 0-.77.54-1.41.55-.64 1.32-.64.7 0 1.21.96t.51 2.12q0 1.28-2.94 13.82-2.94 12.54-2.94 13.31 0 .71.64.71.32 0 1.15-.84.77-.76 1.28-.76 1.02 0 1.02 1.28 0 .76-.89 1.53-.9.77-2.05 1.25t-1.79.48zm6.46-38.66q-1.02 0-1.54-.25h-.25q-1.86 0-1.86-2.18 0-1.09.93-1.98.93-.9 2.02-.9 1.08 0 2.04.77 1.09 1.09 1.09 2.11 0 .96-.73 1.7-.74.73-1.7.73zM495.17.26q-2.24 0-3.36-1.16-1.12-1.15-1.12-4.16 0-1.66.38-3.84l.58-3.64.7-3.01.39-1.73.83-3.52q.13-.83.57-2.69l.32-1.28.58-2.75.38-1.92q-2.49 0-4.6.32-1.28-.19-1.28-1.09 0-.64.51-1.21.51-.58 1.21-.64l4.61.12.32-1.6q.13-1.28.51-2.94.39-1.66.96-2.94.58-1.41 1.67-1.41 1.02 0 1.02 1.15v.38q-.25 1.28-.45 1.86L498.82-32h4.6q2.44 0 3.01.38.51.39.51.96 0 1.03-.92 1.32-.93.28-3.17.28-2.05 0-4.55-.19-.38 2.11-2.62 11.71-2.05 8.71-2.05 11.01 0 2.5.58 3.27.32.51 1.34.51.9 0 1.57-.48t1.38-1.31q.7-.9 1.21-1.35.51-.45 1.09-.45 1.28 0 1.28 1.28 0 .64-1.28 2.12-1.28 1.47-2.43 2.36-1.03.84-3.2.84zm20.48.38q-2.05 0-3.2-.67-1.15-.67-1.86-2.08-1.34-2.5-1.34-6.02 0-6.14 1.85-11.68 1.86-5.53 5.06-9.31 3.07-3.58 6.72-3.58 1.92 0 3.04 1.56 1.12 1.57 1.12 3.81 0 3.91-2.02 6.79-2.01 2.88-5.4 4.8-2.95 1.72-7.17 3.45l-.13 4.61q0 5.38 3.26 5.38 1.35 0 2.6-.52 1.24-.51 2.72-1.4 1.72-1.03 2.43-1.03 1.09 0 1.09 1.15 0 .84-1.57 1.99t-3.68 1.95q-2.11.8-3.52.8zm-2.69-16q4.29-1.73 6.53-3.07 2.24-1.35 3.42-3.39 1.19-2.05 1.19-5.38 0-2.5-2.12-2.5-1.85 0-4.35 3.4-2.62 3.39-4.22 8.89-.45 1.54-.45 2.05zM560.13.7q-4.42 0-8.1-1.47-3.68-1.47-5.82-4.32-2.15-2.85-2.15-6.75 0-6.08 3.65-10.5 1.09-1.34 2.37-2.56 1.28-1.21 2.05-1.21 1.21 0 1.21 1.09 0 .51-.25.89-3.2 2.88-4.58 5.57-1.37 2.69-1.37 5.82 0 5.38 3.8 8 3.81 2.63 9.51 2.63 3.65 0 6.43-1.89t4.29-5.09q1.5-3.2 1.5-6.91 0-5.63-5.18-17.6-5.19-12.1-5.19-16.83 0-4.93 2.37-8.19 2.37-3.27 6.79-3.27 3.39 0 5.66 1.7 2.27 1.69 3.36 3.84 1.09 2.14 1.09 3.49 0 .64-.55 1.12-.54.48-1.12.48-.96 0-1.15-1.16-.45-2.94-2.43-4.86-1.98-1.92-4.86-1.92-2.88 0-4.48 2.02-1.6 2.01-1.6 5.02 0 4.22 1.28 8.22 1.28 4 3.9 10.08 2.56 5.83 3.87 9.89 1.31 4.07 1.31 8.29 0 4.1-1.6 7.84t-5.12 6.14Q565.5.7 560.13.7zm42.62.84q-1.92 0-1.92-5.12 0-2.69.45-5.38t1.41-6.98l.51-2.36q-1.09 2.11-2.56 5.37-2.62 5.38-5.28 9.41T590.08.51q-3.46 0-3.46-6.85 0-8.51 2.76-19.9l1.02-3.9q.58-2.12 1.98-2.12.77 0 1.09 1.09-.13 1.15-.51 2.75t-.51 2.31q-1.22 4.67-1.99 9.31-.76 4.64-.89 11.3 0 2.56.83 2.56 1.22 0 3.26-2.85 2.05-2.85 5.06-8.67 2.94-6.34 5.63-11.43t4.23-5.09q1.08 0 1.08 1.22 0 .9-1.6 5.06-1.21 3.13-1.6 4.54-2.24 7.68-2.81 16.77 0 .83.16 1.25.16.41.57.86.42.45.42 1.09 0 .64-.7 1.18-.71.55-1.35.55zm19.07-.9q-2.81 0-4.32-2.5-1.5-2.49-1.5-6.2 0-2.76.32-5.41.32-2.66.96-6.31l.26-1.66q.96-6.02 1.6-9.34.12-.84.25-1.48t.19-1.15q.58-3.01 1.03-4.86.32-1.92 1.66-8.39 1.03-4.54 2.63-13.76.44-1.02 1.28-1.02 1.66 0 1.66 1.41l-.13.45q-1.53 10.36-3.58 19.58-2.31 10.3-3.39 15.74 2.17-3.9 4.16-5.92 1.98-2.01 4.35-2.01 2.37 0 3.81 1.82 1.44 1.83 1.44 4.19 0 4.93-1.51 11.24-1.5 6.3-3.93 10.27-3.2 5.31-7.24 5.31zm0-3.26q2.31 0 4.61-3.84 3.07-4.93 4.35-12.74.32-2.43.32-4.61 0-2.62-.48-3.93-.48-1.32-1.76-1.32-1.34 0-3.42 2.28-2.08 2.27-3.74 5.63-1.67 3.36-1.99 6.3-.45 4.29-.45 6.79 0 5.44 2.56 5.44zm-.32 29.12q-3.52 0-5.76-1.22-.7-.38-.7-.96t.48-1.15q.48-.58 1.12-.71 2.18.84 5.44.84 6.98 0 11.26-7.68 4.29-7.68 6.34-17.64 2.05-9.95 3.84-23.9.19-1.66.35-2.94.16-1.28.29-2.18.19-.7.7-1.09.52-.38 1.09-.38 1.09 0 1.09 1.15l-1.34 9.6q-3.59 25.02-6.6 34.3-2.43 7.56-6.88 10.76-4.44 3.2-10.72 3.2zm25.22-64.52q-1.02 0-1.54-.25h-.25q-1.86 0-1.86-2.18 0-1.09.93-1.98.93-.9 2.02-.9 1.08 0 2.04.77 1.09 1.09 1.09 2.11 0 .96-.73 1.7-.74.73-1.7.73zM657.79.64q-2.05 0-3.2-.67-1.15-.67-1.85-2.08-1.35-2.5-1.35-6.02 0-6.14 1.86-11.68 1.85-5.53 5.05-9.31 3.08-3.58 6.72-3.58 1.92 0 3.04 1.56 1.12 1.57 1.12 3.81 0 3.91-2.01 6.79-2.02 2.88-5.41 4.8-2.94 1.72-7.17 3.45l-.13 4.61q0 5.38 3.27 5.38 1.34 0 2.59-.52 1.25-.51 2.72-1.4 1.73-1.03 2.43-1.03 1.09 0 1.09 1.15 0 .84-1.57 1.99t-3.68 1.95q-2.11.8-3.52.8zm-2.69-16q4.29-1.73 6.53-3.07 2.24-1.35 3.43-3.39 1.18-2.05 1.18-5.38 0-2.5-2.11-2.5-1.86 0-4.35 3.4-2.63 3.39-4.23 8.89-.45 1.54-.45 2.05zM678.27.77q-3.07 0-4.83-2.27-1.76-2.28-1.76-5.48 0-5.63 2.08-11.64 2.08-6.02 5.47-10.05 3.33-4.03 7.17-4.03 2.75 0 3.58 1.98.2.32.32.67.13.35.26.67.32.9.64 1.03.26.64.26.96 0 .57-.55 1.09-.54.51-1.18.51-1.35 0-1.73-1.99-.38-1.98-2.11-1.98-2.31 0-4.87 3.55t-4.41 8.99q-1.79 5.12-1.79 9.16 0 5.69 4.16 5.69 2.11 0 3.9-1.98.19-.26.7-.87.52-.6.96-.89.45-.29.84-.29 1.21 0 1.21 1.09 0 1.28-1.21 2.72-1.22 1.44-3.14 2.4-1.92.96-3.97.96zm21.44-.51q-2.24 0-3.36-1.16-1.12-1.15-1.12-4.16 0-1.66.39-3.84l.57-3.64.71-3.01.38-1.73.83-3.52q.13-.83.58-2.69l.32-1.28.57-2.75.39-1.92q-2.5 0-4.61.32-1.28-.19-1.28-1.09 0-.64.51-1.21.51-.58 1.22-.64l4.61.12.32-1.6q.12-1.28.51-2.94.38-1.66.96-2.94.57-1.41 1.66-1.41 1.03 0 1.03 1.15v.38q-.26 1.28-.45 1.86L703.36-32h4.61q2.43 0 3.01.38.51.39.51.96 0 1.03-.93 1.32-.93.28-3.17.28-2.05 0-4.54-.19-.39 2.11-2.63 11.71-2.04 8.71-2.04 11.01 0 2.5.57 3.27.32.51 1.35.51.89 0 1.56-.48.68-.48 1.38-1.31.7-.9 1.22-1.35.51-.45 1.08-.45 1.28 0 1.28 1.28 0 .64-1.28 2.12-1.28 1.47-2.43 2.36-1.02.84-3.2.84zm13.89-5q0-.83.45-1.15.45-.32 1.15-.45.58 0 .93.39.35.38.86 1.21.51.9.87 1.25.35.35 1.24.35 2.05 0 3.36-1.28 1.32-1.28 1.32-3 0-1.86-.77-3.91t-2.37-5.12q-3.2-5.76-3.2-9.15 0-3.39 1.7-5.44 1.69-2.05 4.64-2.05 2.04 0 3.9 1.15 1.86 1.16 1.86 2.88 0 1.86-1.54 1.86-.45 0-.74-.26-.28-.25-.54-.6-.26-.36-.38-.48-1.16-1.35-2.56-1.35-3.14 0-3.14 3.65 0 1.98.77 4.03.77 2.05 2.3 5.19 1.47 3.07 2.24 5.12.77 2.04.77 3.9 0 3.26-1.98 5.5-1.99 2.24-5.57 2.69-2.24 0-3.91-1.57-1.66-1.56-1.66-3.36z" fill="url(#a)" style="fill:url(#a)" transform="translate(-5.06 64)"/></svg>