<svg xmlns="http://www.w3.org/2000/svg" version="1.1" viewBox="0 0 3993 567"><defs><linearGradient id="a" x1="190" x2="1694" y1="2433" y2="2433" gradientTransform="scale(2.65414 .37677)" gradientUnits="userSpaceOnUse"><stop offset="0" stop-color="#f88"/></linearGradient></defs><path d="m556 1034-6-53-23-160-23-164q0-4 4-7l6-3q6 0 8 7 3 34 10 80L550 850q16 102 22 154 70-110 97-191l16-53q4-20 4-41l-2-33-4-41q0-5 4-9t7-4q6 0 8 7 5 31 5 63 0 53-17 107t-54 122q-33 60-64 101-6 7-10 7t-6-6zm225 3q-20 0-30-16T740 980q0-36 12-70t34-57q20-23 46-23 36 0 36 56 0 28-9 58t-24 52q-14 22-30 32-12 8-24 8zm3-18q13 0 28-22 16-21 26-53 10-32 10-55t-2-28q-2-6-6-9t-11-2q-9 0-18 6-18 12-32 40-21 43-21 83 0 27 16 37 5 3 10 3zm148 16q-14 0-21-7-7-7-7-26l2-24 4-23 4-19 3-10 5-23q0-5 4-16l2-8 3-18 3-12q-16 0-30 2-7 0-7-6 0-4 3-8t8-4h28l2-10 4-18 6-18q3-9 10-9 6 0 6 7v3l-2 11-7 34h29q15 0 18 3 4 2 4 6 0 6-6 8-6 2-20 2l-28-1-17 73q-13 54-13 69t4 20q2 3 8 3 6 0 10-3l9-8 7-8q4-3 7-3 8 0 8 8 0 4-8 13t-15 15q-6 5-20 5zm128 2q-13 0-20-4t-12-13q-8-15-8-37 0-39 12-73t31-59q20-22 42-22 12 0 20 10t6 24q0 24-12 42-13 18-34 30l-45 22v28q0 34 20 34 8 0 16-3t17-9q10-6 15-6 7 0 7 7 0 5-10 12t-23 12q-13 5-22 5zm-17-100q27-10 41-19 14-8 21-21 8-13 8-34 0-15-13-15-12 0-28 21-16 21-26 56l-3 12zm228 263q-13 0-23-7-10-6-15-17t-5-20q0-24 13-43 10-14 32-30 20-16 24-17l35-26 15-50 5-16 6-18 4-14q-18 50-42 76-16 19-30 19t-25-13q-10-12-10-33 0-34 20-106l9-39v-8q6-7 14-7t8 8q0 8-15 67t-15 80q0 21 5 26t12 5q15 0 33-25 13-20 24-54l20-71 2-8q4-18 7-23 3-5 10-5 6 0 6 5 0 6-17 82l-24 105 14-12 12-12q4-3 7-3 7 0 7 7 0 4-3 8-21 20-41 34-10 53-18 84-9 31-23 51-15 20-38 20zm0-19q25 0 42-56l9-36 5-26-30 22q-15 10-24 18t-17 20q-8 13-8 30 0 16 11 24 4 4 12 4zm190-144q-20 0-30-16t-10-40q0-36 12-70t33-57q20-23 46-23 37 0 37 56 0 28-10 58t-23 52q-15 22-30 32-12 8-24 8zm4-18q12 0 28-22 15-21 25-53 11-32 11-55t-3-28q-2-6-6-9t-10-2q-10 0-18 6-19 12-32 40-22 43-22 83 0 27 16 37 6 3 10 3zm213 24q-12 0-12-32l2-34q2-17 10-43l2-15-16 34q-16 33-33 58t-33 26q-21 0-21-43 0-53 17-125l6-24q4-13 13-13 5 0 7 7l-4 17-3 14-12 58q-5 30-6 71 0 16 5 16 8 0 20-18t32-54q19-40 36-71 16-32 26-32 7 0 7 7 0 6-10 32l-10 28q-14 48-18 105l1 8q1 3 4 5 2 3 2 7t-4 8q-4 3-8 3zm74-3q-5 0-5-7l9-48 17-84 11-56q2-10 4-13t8-4q4 0 6 2 2 2 2 7 0 10-6 28l-4 16-3 12-5 16q11-24 20-39t25-27q13-12 27-12 10 0 17 4t7 10q0 4-4 7-3 3-8 3l-6-2q-3-2-7-2-5 0-15 7-19 14-32 36-13 22-20 45-8 22-16 54l-4 15q-6 32-18 32zm139 158q-15 0-33-6-18-5-30-14-14-8-14-15 0-4 4-6t10-2q22 15 34 20 11 4 30 4 36 0 58-22 22-21 34-58 9-24 18-77t20-131l6-40H1990q-8 0-8-6t4-8q4-2 13-3h33q12-50 23-80t30-46q20-16 50-16 33 0 33 12 0 6-8 11-11-2-32-2-28 0-49 34-20 33-28 86h51q11 0 11 8 0 10-19 10h-47l-20 134-12 72q-14 86-55 120-26 20-70 20zm365-164q-10 0-17-10-8-10-8-20 0-25 13-85-10 22-26 45t-30 40q-16 17-23 22-10 7-22 7-23 0-23-28t21-70q21-42 50-73 30-30 48-30 18 0 20 16l2 10 4-1q10 0 10 9v1l-5 18q-6 20-12 60-6 38-6 64l4 3q10 6 10 12 0 4-3 7-3 3-7 3zm-110-21q4 0 7-3 41-35 73-97l17-33q3-8 3-16 0-4-2-7-2-3-5-3-4 0-10 3-17 9-38 36-22 27-36 58-15 30-15 54 0 8 6 8zm198 22q-10 0-10-9-8-46-12-90l-12-100q0-4 4-7l6-3q6 0 8 7 4 42 10 82l10 90q33-50 50-90 15-40 15-80 0-41-25-50-7-4-12-4-6 0-9-2-2-2-2-5 0-8 11-10 56 4 56 69 0 64-44 143-15 27-33 50-6 9-10 9zm140 2q-22 0-32-16t-10-40q0-36 12-70t34-57q20-23 46-23 36 0 36 56 0 28-9 58t-24 52q-14 22-30 32-12 8-24 8zm2-18q13 0 28-22 16-21 26-53 10-32 10-55t-2-28q-2-6-6-9t-11-2q-9 0-18 6-18 12-32 40Q2460 940 2460 980q0 27 16 37 5 3 10 3zm213 24q-12 0-12-32 0-17 3-34t9-43l3-15-16 34q-16 33-33 58t-33 26q-22 0-22-43 0-53 18-125l6-24q4-13 12-13 5 0 7 7 0 7-3 17t-3 14q-8 30-13 58-4 30-5 71 0 16 5 16 8 0 20-18t32-54q18-40 35-71 17-32 27-32 6 0 6 7 0 6-10 32l-10 28q-14 48-17 105v8q0 3 4 5 3 3 3 7t-4 8q-5 3-9 3zm75-3q-6 0-6-7l10-48 16-84 12-56q1-10 4-13t7-4q4 0 6 2 3 2 3 7 0 10-6 28l-4 16-4 12-4 16q10-24 20-39t24-27q14-12 28-12 10 0 16 4 7 4 7 10 0 4-3 7-3 3-8 3-4 0-7-2-2-2-6-2-5 0-15 7-20 14-32 36-13 22-20 45-8 22-16 54l-4 15q-6 32-18 32zm146-3q-13 0-13-22l2-10 3-15 6-27 8-35 10-44 2-8 4-20v-4l-3-13q0-5 3-10t8-3q5 0 8 6t3 13q0 8-18 86-19 79-19 84 0 4 4 4 2 0 8-5 4-5 8-5 6 0 6 8 0 5-6 10t-12 7l-12 3zm40-241q-6 0-9-2h-1q-12 0-12-13 0-7 6-13 6-5 12-5t13 4q7 7 7 14 0 6-5 10-4 5-10 5zm72 239q-14 0-21-7-7-7-7-26l2-24 4-23 4-19 2-10 6-23 3-16 2-8 4-18 2-12q-15 0-29 2-8 0-8-6 0-4 4-8t7-4h29l2-10q0-7 3-18t6-18q4-9 10-9 7 0 7 7v3l-3 11-7 34h30q14 0 18 3 3 2 3 6 0 6-6 8-5 2-20 2l-28-1-16 73q-13 54-13 69t4 20q2 3 8 3 6 0 10-3l8-8 8-8q3-3 7-3 8 0 8 8 0 4-8 13t-15 15q-7 5-20 5zm128 2q-13 0-20-4t-12-13q-8-15-8-37 0-39 11-73t32-59q19-22 42-22 12 0 19 10t7 24q0 24-13 42-12 18-34 30l-44 22-1 28q0 34 20 34 9 0 16-3 8-3 17-9 11-6 16-6 6 0 6 7 0 5-10 12t-22 12q-14 5-22 5zm-17-100q27-10 40-19 15-8 22-21 7-13 7-34 0-15-13-15-11 0-27 21t-26 56l-3 12zm295 100q-28 0-51-8t-36-27q-14-18-14-43 0-38 23-65 7-9 15-16 8-8 13-8 7 0 7 7l-1 6q-20 18-29 34-9 17-9 37 0 33 24 50 24 16 60 16 22 0 40-12 17-11 27-31 9-20 9-44 0-35-32-110-33-75-33-105t15-51 42-20q22 0 36 10t20 24q8 14 8 22 0 4-4 7-3 3-7 3-6 0-7-7-3-19-15-30t-30-13q-19 0-29 13t-10 31q0 27 8 52t25 63q16 36 24 62 8 25 8 51 0 26-10 50-10 23-32 38t-55 15zm266 6q-12 0-12-32 0-17 3-34t9-43l3-15-16 34q-17 33-33 58t-33 26q-22 0-22-43 0-53 17-125l7-24q3-13 12-13 5 0 7 7 0 7-3 17T3640 870q-8 30-13 58-5 30-5 71 0 16 5 16 7 0 20-18t32-54q18-40 35-71 17-32 26-32 7 0 7 7 0 6-10 32l-10 28q-14 48-17 105v8q0 3 4 5 3 3 3 7t-5 8q-4 3-8 3zm120-6q-18 0-28-15-10-16-10-39 0-17 3-34t6-40l1-10 10-58 2-10 1-6 7-30 10-53 16-86q3-7 8-7 10 0 10 10v2q-10 65-22 122l-22 99q14-25 26-37 13-13 28-13 14 0 23 12 10 11 10 26 0 30-10 70t-25 64q-20 33-45 33zm0-20q14 0 28-24 20-30 27-80l2-28q0-17-3-25t-10-8q-10 0-22 14-13 14-24 35-10 21-12 40-3 26-3 42 0 34 16 34zm-3 182q-22 0-36-8-4-2-4-6t3-7q3-3 7-4 13 5 34 5 43 0 70-48t40-110q13-62 24-150l2-18 2-14q1-4 4-6 3-3 7-3 7 0 7 7l-9 60q-22 157-40 215-16 47-44 67t-67 20zM3980 796q-7 0-10-2h-1q-12 0-12-13 0-7 6-13 6-5 12-5t13 4q7 7 7 14 0 6-5 10-4 5-10 5zm69 241q-13 0-20-4t-12-13q-8-15-8-37 0-39 12-73t29-60q20-22 42-22 12 0 20 10t6 24q0 24-12 42-13 18-34 30l-45 22v28q0 34 20 34 8 0 16-3t17-9q10-6 15-6 7 0 7 7 0 5-10 12t-23 12q-13 5-22 5zm-17-100q27-10 41-19 14-8 21-21 8-13 8-34 0-15-13-15-12 0-28 21-16 21-26 56l-3 12zm145 101q-20 0-30-14t-11-34q0-35 13-73t34-63q20-25 45-25 17 0 22 12l2 5 2 4q2 5 4 6l1 6q0 4-3 7-3 3-7 3-9 0-11-12-3-13-13-13-15 0-30 23t-28 56q-12 32-12 57 0 36 26 36 14 0 25-13l4-5 6-6 5-2q8 0 8 7 0 8-8 17-7 10-20 15t-24 6zm134-3q-14 0-21-7-7-7-7-26l2-24 4-23 4-19 3-10 5-23q0-5 4-16l2-8 3-18 3-12q-16 0-30 2-7 0-7-6 0-4 3-8t8-4h28l2-10 4-18 6-18q3-9 10-9 6 0 6 7v3l-2 11-7 34h29q15 0 18 3 4 2 4 6 0 6-6 8-6 2-20 2L4330 850l-17 73q-13 54-13 69t4 20q2 3 8 3 6 0 10-3l9-8 7-8q4-3 7-3 8 0 8 8 0 4-8 13T4330 1030q-6 5-20 5zm87-31q0-5 3-7 2-2 7-3l6 2 5 8 5 8q3 2 8 2 13 0 21-8t8-19q0-12-4-24T4440 930q-20-36-20-58 0-20 10-34 11-12 30-12 12 0 24 7t11 18q0 11-10 11l-4-1q-2-1-3-4l-3-3q-7-8-16-8-20 0-20 22 0 13 6 26t14 32 14 32q5 13 5 24 0 20-13 35t-34 17q-14 0-25-10t-10-21" fill="url(#a)" transform="translate(-504-633)"/></svg>
