<svg xmlns="http://www.w3.org/2000/svg" width="399.28" height="56.68" version="1.1"><defs><linearGradient id="a" x1="18.974" x2="169.411" y1="243.332" y2="243.332" gradientTransform="scale(2.65414 .37677)" gradientUnits="userSpaceOnUse"><stop offset="0" stop-color="#f88"/></linearGradient></defs><path d="M55.64 103.42q-.44-3.28-.64-5.28-.32-2.64-2.28-16-1.92-12.92-2.36-16.44.12-.36.46-.66.34-.3.62-.3.56 0 .76.68.32 3.36.98 7.94.66 4.58 1.78 11.78 1.6 10.16 2.24 15.4 6.96-10.96 9.72-19.16 1.12-3.28 1.56-5.28.44-2 .44-4.12 0-1.32-.18-3.24-.18-1.92-.42-4.16 0-.48.34-.86t.7-.38q.68 0 .8.68.52 3.12.52 6.24 0 5.36-1.7 10.74t-5.34 12.18q-3.32 6.04-6.48 10.16-.52.64-.92.64t-.6-.56zm22.48.28q-2.08 0-3.1-1.64T74 98.14q0-3.64 1.22-7.06 1.22-3.42 3.34-5.66 2.04-2.28 4.6-2.28 3.68 0 3.68 5.6 0 2.8-.92 5.72t-2.38 5.2q-1.46 2.28-3.02 3.28-1.2.76-2.4.76zm.32-1.8q1.24 0 2.78-2.16 1.54-2.16 2.58-5.36 1.08-3.2 1.08-5.44 0-2.32-.28-2.88-.24-.6-.6-.84t-1.12-.24q-.84 0-1.76.64-1.84 1.16-3.2 4-2.12 4.24-2.12 8.24 0 2.72 1.56 3.76.56.28 1.08.28zm14.76 1.6q-1.4 0-2.1-.72-.7-.72-.7-2.6 0-1.04.24-2.4L91 95.5l.44-1.88.24-1.08.52-2.2q.08-.52.36-1.68l.2-.8.36-1.72.24-1.2q-1.56 0-2.88.2-.8-.12-.8-.68 0-.4.32-.76t.76-.4l2.88.08.2-1q.08-.8.32-1.84t.6-1.84q.36-.88 1.04-.88.64 0 .64.72v.24q-.16.8-.28 1.16l-.68 3.4h2.88q1.52 0 1.88.24.32.24.32.6 0 .64-.58.82-.58.18-1.98.18-1.28 0-2.84-.12-.24 1.32-1.64 7.32-1.28 5.44-1.28 6.88 0 1.56.36 2.04.2.32.84.32.56 0 .98-.3.42-.3.86-.82.44-.56.76-.84.32-.28.68-.28.8 0 .8.8 0 .4-.8 1.32t-1.52 1.48q-.64.52-2 .52zm12.8.24q-1.28 0-2-.42t-1.16-1.3q-.84-1.56-.84-3.76 0-3.84 1.16-7.3t3.16-5.82q1.92-2.24 4.2-2.24 1.2 0 1.9.98t.7 2.38q0 2.44-1.26 4.24-1.26 1.8-3.38 3-1.84 1.08-4.48 2.16l-.08 2.88q0 3.36 2.04 3.36.84 0 1.62-.32.78-.32 1.7-.88 1.08-.64 1.52-.64.68 0 .68.72 0 .52-.98 1.24t-2.3 1.22q-1.32.5-2.2.5zm-1.68-10q2.68-1.08 4.08-1.92 1.4-.84 2.14-2.12.74-1.28.74-3.36 0-1.56-1.32-1.56-1.16 0-2.72 2.12-1.64 2.12-2.64 5.56-.28.96-.28 1.28zm22.76 26.28q-1.28 0-2.26-.68-.98-.68-1.5-1.7t-.52-2.02q0-2.44 1.32-4.36.96-1.4 3.2-3 2.04-1.52 2.4-1.68l3.48-2.56q.12-.56 1.48-4.96l.52-1.64q.28-1 .56-1.84.28-.84.4-1.4-1.72 5-4.12 7.64-1.6 1.84-3.12 1.84t-2.46-1.22q-.94-1.22-.94-3.34 0-3.36 1.92-10.6.96-3.6.96-3.88-.04-.16-.04-.36 0-.28.12-.44.56-.76 1.32-.76t.76.8q0 .8-1.48 6.72t-1.48 8.04q0 2.08.52 2.6.48.52 1.2.52 1.52 0 3.24-2.56 1.36-2 2.42-5.38 1.06-3.38 1.98-7.14l.2-.8q.44-1.8.76-2.24.32-.48.96-.48.64 0 .64.48 0 .56-1.72 8.16-1.68 7.08-2.4 10.56.8-.68 1.4-1.28.8-.8 1.18-1.12.38-.32.7-.32.76 0 .76.68 0 .36-.32.8-2.16 1.92-4.16 3.44-.96 5.28-1.8 8.38-.84 3.1-2.3 5.1-1.46 2-3.78 2zm.04-1.92q2.44 0 4.16-5.64l.92-3.52.52-2.6q-1.56 1.2-3.04 2.2-1.48 1-2.42 1.8t-1.68 2.04q-.74 1.24-.74 2.84 0 1.64 1.08 2.52.4.36 1.2.36zm19.04-14.4q-2.08 0-3.1-1.64t-1.02-3.92q0-3.64 1.22-7.06 1.22-3.42 3.34-5.66 2.04-2.28 4.6-2.28 3.68 0 3.68 5.6 0 2.8-.92 5.72t-2.38 5.2q-1.46 2.28-3.02 3.28-1.2.76-2.4.76zm.32-1.8q1.24 0 2.78-2.16 1.54-2.16 2.58-5.36 1.08-3.2 1.08-5.44 0-2.32-.28-2.88-.24-.6-.6-.84t-1.12-.24q-.84 0-1.76.64-1.84 1.16-3.2 4-2.12 4.24-2.12 8.24 0 2.72 1.56 3.76.56.28 1.08.28zm21.28 2.4q-1.2 0-1.2-3.2 0-1.68.28-3.36t.88-4.36l.32-1.48q-.68 1.32-1.6 3.36-1.64 3.36-3.3 5.88t-3.3 2.52q-2.16 0-2.16-4.28 0-5.32 1.72-12.44l.64-2.44q.36-1.32 1.24-1.32.48 0 .68.68-.08.72-.32 1.72t-.32 1.44q-.76 2.92-1.24 5.82-.48 2.9-.56 7.06 0 1.6.52 1.6.76 0 2.04-1.78t3.16-5.42q1.84-3.96 3.52-7.14 1.68-3.18 2.64-3.18.68 0 .68.76 0 .56-1 3.16-.76 1.96-1 2.84-1.4 4.8-1.76 10.48 0 .52.1.78t.36.54q.26.28.26.68t-.44.74q-.44.34-.84.34zm7.48-.32q-.56 0-.56-.72l.92-4.76 1.68-8.44 1.12-5.6q.16-.88.44-1.28t.72-.4q.4 0 .62.2.22.2.22.72 0 .92-.56 2.8-.28.92-.4 1.56l-.36 1.26q-.2.7-.44 1.62 1.08-2.44 2.04-3.9t2.4-2.78q1.36-1.16 2.72-1.16 1 0 1.68.42.68.42.68.98 0 .44-.32.7-.32.26-.8.26-.36 0-.68-.16-.24-.2-.64-.2-.52 0-1.52.72-1.88 1.36-3.18 3.58-1.3 2.22-2.04 4.48-.74 2.26-1.58 5.46l-.36 1.48q-.6 3.16-1.8 3.16zm13.84 15.8q-1.44 0-3.26-.56-1.82-.56-3.1-1.38-1.28-.82-1.28-1.54 0-.4.36-.64t1.04-.2q2.16 1.56 3.32 1.98 1.16.42 3.08.42 3.52 0 5.72-2.14 2.2-2.14 3.48-5.82.84-2.4 1.72-7.74t2-13.1l.6-3.96-3.72.08q-.8-.08-.8-.72 0-.56.38-.78.38-.22 1.28-.28.9-.06 3.26-.06 1.24-5 2.38-7.92t3.02-4.58q1.88-1.66 4.88-1.66 3.32 0 3.32 1.2 0 .6-.8 1.16-1.08-.2-3.2-.2-2.8 0-4.82 3.34-2.02 3.34-2.82 8.66l5.08.04q1.12 0 1.12.76 0 .96-1.92 1.04h-4.68q-.52 2.88-2.08 13.28l-1.12 7.24q-1.4 8.56-5.56 11.96-2.52 2.12-6.88 2.12zm36.48-16.36q-.92 0-1.7-.98-.78-.98-.78-2.1 0-2.48 1.32-8.4-1 2.16-2.58 4.42t-3.1 3.98q-1.52 1.72-2.24 2.24-1 .76-2.2.76-2.28 0-2.28-2.88 0-2.8 2.12-6.98 2.12-4.18 5.04-7.26 2.92-3.04 4.72-3.04 1.84 0 2.08 1.6.12.48.12 1.04.2-.12.44-.12.92 0 .92.88v.16l-.48 1.76q-.56 2-1.16 5.92-.6 3.92-.6 6.52l.4.24q.96.6.96 1.2 0 .4-.28.72-.28.32-.72.32zm-10.96-2.16q.44 0 .72-.28 4.08-3.48 7.24-9.64 1.36-2.56 1.7-3.36.34-.8.34-1.56 0-.4-.2-.72-.2-.32-.52-.32-.4 0-1.04.36-1.6.84-3.78 3.56-2.18 2.72-3.58 5.76-1.48 3.08-1.48 5.48 0 .72.6.72zm19.84 2.2q-1 0-1.12-.84-.68-4.6-1.12-9.08-.64-5.4-1.24-9.96.12-.36.46-.66.34-.3.62-.3.56 0 .76.68.44 4.16.96 8.2.48 3.4 1.12 9.04 3.24-5.08 4.84-9.04 1.6-3.96 1.6-7.92 0-4.2-2.48-5.16-.72-.28-1.28-.32-.6-.08-.82-.22-.22-.14-.22-.46 0-.84 1.12-1 5.56.4 5.56 6.84 0 6.44-4.4 14.36-1.48 2.68-3.28 5.04-.6.8-1.08.8zm13.88.24q-2.08 0-3.1-1.64t-1.02-3.92q0-3.64 1.22-7.06 1.22-3.42 3.34-5.66 2.04-2.28 4.6-2.28 3.68 0 3.68 5.6 0 2.8-.92 5.72t-2.38 5.2q-1.46 2.28-3.02 3.28-1.2.76-2.4.76zm.32-1.8q1.24 0 2.78-2.16 1.54-2.16 2.58-5.36 1.08-3.2 1.08-5.44 0-2.32-.28-2.88-.24-.6-.6-.84t-1.12-.24q-.84 0-1.76.64-1.84 1.16-3.2 4-2.12 4.24-2.12 8.24 0 2.72 1.56 3.76.56.28 1.08.28zm21.28 2.4q-1.2 0-1.2-3.2 0-1.68.28-3.36t.88-4.36l.32-1.48q-.68 1.32-1.6 3.36-1.64 3.36-3.3 5.88t-3.3 2.52q-2.16 0-2.16-4.28 0-5.32 1.72-12.44l.64-2.44q.36-1.32 1.24-1.32.48 0 .68.68-.08.72-.32 1.72t-.32 1.44q-.76 2.92-1.24 5.82-.48 2.9-.56 7.06 0 1.6.52 1.6.76 0 2.04-1.78t3.16-5.42q1.84-3.96 3.52-7.14 1.68-3.18 2.64-3.18.68 0 .68.76 0 .56-1 3.16-.76 1.96-1 2.84-1.4 4.8-1.76 10.48 0 .52.1.78t.36.54q.26.28.26.68t-.44.74q-.44.34-.84.34zm7.48-.32q-.56 0-.56-.72l.92-4.76 1.68-8.44 1.12-5.6q.16-.88.44-1.28t.72-.4q.4 0 .62.2.22.2.22.72 0 .92-.56 2.8-.28.92-.4 1.56l-.36 1.26q-.2.7-.44 1.62 1.08-2.44 2.04-3.9t2.4-2.78q1.36-1.16 2.72-1.16 1 0 1.68.42.68.42.68.98 0 .44-.32.7-.32.26-.8.26-.36 0-.68-.16-.24-.2-.64-.2-.52 0-1.52.72-1.88 1.36-3.18 3.58-1.3 2.22-2.04 4.48-.74 2.26-1.58 5.46l-.36 1.48q-.6 3.16-1.8 3.16zm14.64-.24q-1.36 0-1.36-2.2 0-.56.2-1 .2-.68.36-1.56l.6-2.68.8-3.52q.4-1.96.96-4.4.08-.24.16-.8.4-1.72.4-2v-.4q0-.32-.28-1.32 0-.48.34-.88t.82-.4q.44 0 .76.6t.32 1.32q0 .8-1.84 8.64-1.84 7.84-1.84 8.32 0 .44.4.44.2 0 .72-.52.48-.48.8-.48.64 0 .64.8 0 .48-.56.96t-1.28.78q-.72.3-1.12.3zm4.04-24.16q-.64 0-.96-.16h-.16q-1.16 0-1.16-1.36 0-.68.58-1.24.58-.56 1.26-.56t1.28.48q.68.68.68 1.32 0 .6-.46 1.06-.46.46-1.06.46zm7.08 23.92q-1.4 0-2.1-.72-.7-.72-.7-2.6 0-1.04.24-2.4l.36-2.28.44-1.88.24-1.08.52-2.2q.08-.52.36-1.68l.2-.8.36-1.72.24-1.2q-1.56 0-2.88.2-.8-.12-.8-.68 0-.4.32-.76t.76-.4l2.88.08.2-1q.08-.8.32-1.84t.6-1.84q.36-.88 1.04-.88.64 0 .64.72v.24q-.16.8-.28 1.16l-.68 3.4h2.88q1.52 0 1.88.24.32.24.32.6 0 .64-.58.82-.58.18-1.98.18-1.28 0-2.84-.12-.24 1.32-1.64 7.32-1.28 5.44-1.28 6.88 0 1.56.36 2.04.2.32.84.32.56 0 .98-.3.42-.3.86-.82.44-.56.76-.84.32-.28.68-.28.8 0 .8.8 0 .4-.8 1.32t-1.52 1.48q-.64.52-2 .52zm12.8.24q-1.28 0-2-.42t-1.16-1.3q-.84-1.56-.84-3.76 0-3.84 1.16-7.3t3.16-5.82q1.92-2.24 4.2-2.24 1.2 0 1.9.98t.7 2.38q0 2.44-1.26 4.24-1.26 1.8-3.38 3-1.84 1.08-4.48 2.16l-.08 2.88q0 3.36 2.04 3.36.84 0 1.62-.32.78-.32 1.7-.88 1.08-.64 1.52-.64.68 0 .68.72 0 .52-.98 1.24t-2.3 1.22q-1.32.5-2.2.5zm-1.68-10q2.68-1.08 4.08-1.92 1.4-.84 2.14-2.12.74-1.28.74-3.36 0-1.56-1.32-1.56-1.16 0-2.72 2.12-1.64 2.12-2.64 5.56-.28.96-.28 1.28zm29.48 10.04q-2.76 0-5.06-.92t-3.64-2.7q-1.34-1.78-1.34-4.22 0-3.8 2.28-6.56.68-.84 1.48-1.6.8-.76 1.28-.76.76 0 .76.68 0 .32-.16.56-2 1.8-2.86 3.48-.86 1.68-.86 3.64 0 3.36 2.38 5 2.38 1.64 5.94 1.64 2.28 0 4.02-1.18 1.74-1.18 2.68-3.18.94-2 .94-4.32 0-3.52-3.24-11-3.24-7.56-3.24-10.52 0-3.08 1.48-5.12t4.24-2.04q2.12 0 3.54 1.06t2.1 2.4q.68 1.34.68 2.18 0 .4-.34.7-.34.3-.7.3-.6 0-.72-.72-.28-1.84-1.52-3.04t-3.04-1.2q-1.8 0-2.8 1.26-1 1.26-1 3.14 0 2.64.8 5.14.8 2.5 2.44 6.3 1.6 3.64 2.42 6.18.82 2.54.82 5.18 0 2.56-1 4.9-1 2.34-3.2 3.84t-5.56 1.5zm26.64.52q-1.2 0-1.2-3.2 0-1.68.28-3.36t.88-4.36l.32-1.48q-.68 1.32-1.6 3.36-1.64 3.36-3.3 5.88t-3.3 2.52q-2.16 0-2.16-4.28 0-5.32 1.72-12.44l.64-2.44q.36-1.32 1.24-1.32.48 0 .68.68-.08.72-.32 1.72t-.32 1.44q-.76 2.92-1.24 5.82-.48 2.9-.56 7.06 0 1.6.52 1.6.76 0 2.04-1.78t3.16-5.42q1.84-3.96 3.52-7.14 1.68-3.18 2.64-3.18.68 0 .68.76 0 .56-1 3.16-.76 1.96-1 2.84-1.4 4.8-1.76 10.48 0 .52.1.78t.36.54q.26.28.26.68t-.44.74q-.44.34-.84.34zm11.92-.56q-1.76 0-2.7-1.56-.94-1.56-.94-3.88 0-1.72.2-3.38t.6-3.94l.16-1.04q.6-3.76 1-5.84.08-.52.16-.92t.12-.72q.36-1.88.64-3.04.2-1.2 1.04-5.24.64-2.84 1.64-8.6.28-.64.8-.64 1.04 0 1.04.88l-.08.28q-.96 6.48-2.24 12.24-1.44 6.44-2.12 9.84 1.36-2.44 2.6-3.7 1.24-1.26 2.72-1.26 1.48 0 2.38 1.14.9 1.14.9 2.62 0 3.08-.94 7.02-.94 3.94-2.46 6.42-2 3.32-4.52 3.32zm0-2.04q1.44 0 2.88-2.4 1.92-3.08 2.72-7.96.2-1.52.2-2.88 0-1.64-.3-2.46-.3-.82-1.1-.82-.84 0-2.14 1.42-1.3 1.42-2.34 3.52-1.04 2.1-1.24 3.94-.28 2.68-.28 4.24 0 3.4 1.6 3.4zm-.2 18.2q-2.2 0-3.6-.76-.44-.24-.44-.6t.3-.72q.3-.36.7-.44 1.36.52 3.4.52 4.36 0 7.04-4.8 2.68-4.8 3.96-11.02 1.28-6.22 2.4-14.94.12-1.04.22-1.84t.18-1.36q.12-.44.44-.68.32-.24.68-.24.68 0 .68.72l-.84 6q-2.24 15.64-4.12 21.44-1.52 4.72-4.3 6.72t-6.7 2zm15.76-40.32q-.64 0-.96-.16h-.16q-1.16 0-1.16-1.36 0-.68.58-1.24.58-.56 1.26-.56t1.28.48q.68.68.68 1.32 0 .6-.46 1.06-.46.46-1.06.46zm6.92 24.16q-1.28 0-2-.42t-1.16-1.3q-.84-1.56-.84-3.76 0-3.84 1.16-7.3t3.16-5.82q1.92-2.24 4.2-2.24 1.2 0 1.9.98t.7 2.38q0 2.44-1.26 4.24-1.26 1.8-3.38 3-1.84 1.08-4.48 2.16l-.08 2.88q0 3.36 2.04 3.36.84 0 1.62-.32.78-.32 1.7-.88 1.08-.64 1.52-.64.68 0 .68.72 0 .52-.98 1.24t-2.3 1.22q-1.32.5-2.2.5zm-1.68-10q2.68-1.08 4.08-1.92 1.4-.84 2.14-2.12.74-1.28.74-3.36 0-1.56-1.32-1.56-1.16 0-2.72 2.12-1.64 2.12-2.64 5.56-.28.96-.28 1.28zm14.48 10.08q-1.92 0-3.02-1.42t-1.1-3.42q0-3.52 1.3-7.28 1.3-3.76 3.42-6.28 2.08-2.52 4.48-2.52 1.72 0 2.24 1.24.12.2.2.42.08.22.16.42.2.56.4.64.16.4.16.6 0 .36-.34.68-.34.32-.74.32-.84 0-1.08-1.24-.24-1.24-1.32-1.24-1.44 0-3.04 2.22t-2.76 5.62q-1.12 3.2-1.12 5.72 0 3.56 2.6 3.56 1.32 0 2.44-1.24.12-.16.44-.54t.6-.56q.28-.18.52-.18.76 0 .76.68 0 .8-.76 1.7-.76.9-1.96 1.5t-2.48.6zm13.4-.32q-1.4 0-2.1-.72-.7-.72-.7-2.6 0-1.04.24-2.4l.36-2.28.44-1.88.24-1.08.52-2.2q.08-.52.36-1.68l.2-.8.36-1.72.24-1.2q-1.56 0-2.88.2-.8-.12-.8-.68 0-.4.32-.76t.76-.4l2.88.08.2-1q.08-.8.32-1.84t.6-1.84q.36-.88 1.04-.88.64 0 .64.72v.24q-.16.8-.28 1.16l-.68 3.4h2.88q1.52 0 1.88.24.32.24.32.6 0 .64-.58.82-.58.18-1.98.18-1.28 0-2.84-.12-.24 1.32-1.64 7.32-1.28 5.44-1.28 6.88 0 1.56.36 2.04.2.32.84.32.56 0 .98-.3.42-.3.86-.82.44-.56.76-.84.32-.28.68-.28.8 0 .8.8 0 .4-.8 1.32t-1.52 1.48q-.64.52-2 .52zm8.68-3.12q0-.52.28-.72.28-.2.72-.28.36 0 .58.24.22.24.54.76.32.56.54.78.22.22.78.22 1.28 0 2.1-.8.82-.8.82-1.88 0-1.16-.48-2.44t-1.48-3.2q-2-3.6-2-5.72 0-2.12 1.06-3.4 1.06-1.28 2.9-1.28 1.28 0 2.44.72t1.16 1.8q0 1.16-.96 1.16-.28 0-.46-.16t-.34-.38q-.16-.22-.24-.3-.72-.84-1.6-.84-1.96 0-1.96 2.28 0 1.24.48 2.52T446 92.7q.92 1.92 1.4 3.2.48 1.28.48 2.44 0 2.04-1.24 3.44t-3.48 1.68q-1.4 0-2.44-.98t-1.04-2.1z" fill="url(#a)" transform="translate(-50.36 -63.34)"/></svg>