<svg xmlns="http://www.w3.org/2000/svg" width="62.38" height="127.286" version="1.1"><defs><linearGradient id="b" x1="53.421" x2="26.652" y1="-2.128" y2="-57.014" gradientTransform="scale(.7071 1.41421)" gradientUnits="userSpaceOnUse"><stop offset="0" stop-color="#e10057"/><stop offset=".5" stop-color="#e10057"/><stop offset="1" stop-color="#e10057"/></linearGradient><linearGradient id="d" x1="9.504" x2="9.504" y1="-60.104" y2=".962" gradientTransform="scale(.7071 1.41421)" gradientUnits="userSpaceOnUse"><stop offset=".2" stop-color="#fff" stop-opacity=".8"/><stop offset=".8" stop-color="#fff" stop-opacity="0"/></linearGradient><filter id="a" width="1.445" height="1.35" x="-.222" y="-.111"><feFlood flood-color="#fff" result="flood"/><feConvolveMatrix divisor="1" in="SourceGraphic" kernelMatrix="0 0 0 0 0 0 0 0 0 0 0 1 1 0 0 0 0 0 0 1 1 0 0 0 0 0 1 0 0 1 0 0 0 0 1 0 0 1 0 0 0 1 0 0 0 0 1 0 0 1 1 0 0 1 1 0 0 0 0 1 1 0 0 0" order="8,8" result="conv"/><feOffset dx="0" dy="4" in="conv" result="offset"/><feComposite in="flood" in2="offset" operator="in" result="comp"/><feGaussianBlur in="offset" result="shadow" stdDeviation="3"/><feColorMatrix in="shadow" result="dark-shadow" type="matrix" values="0.7 0 0 0 0 0 0.7 0 0 0 0 0 0.7 0 0 0 0 0 0.3 0"/><feOffset dx="0" dy="4" in="dark-shadow" result="offset-shadow"/><feOffset dx="0" dy="2" in="conv" result="offset-2"/><feComposite in="offset" in2="offset-2" operator="out" result="edge-diff"/><feGaussianBlur in="edge-diff" result="edge-blur" stdDeviation="1"/><feColorMatrix in="edge-blur" result="edge-shadow" type="matrix" values="0 0 0 0 0 0 0 0 0 0 0 0 0 0 0 0 0 0 0.5 0"/><feComposite in="edge-shadow" in2="offset" operator="in" result="edge-shadow-in"/><feOffset dx="0" dy="1" in="edge-shadow-in" result="edge-shadow-final"/><feMerge result="out"><feMergeNode in="offset-shadow"/><feMergeNode in="comp"/><feMergeNode in="edge-shadow-final"/><feMergeNode in="SourceGraphic"/></feMerge></filter><filter id="c" width="1" height="1" x="0" y="0"><feMorphology operator="erode" radius="2"/></filter></defs><g><g filter="url(#a)" transform="matrix(1 0 0 1.09202 -218.81 -25.75)"><path d="M17.94.17Q17-6.8 16.58-11.05q-.68-5.61-4.85-34-4.08-27.46-5.01-34.93.25-.77.97-1.41.73-.64 1.32-.64 1.19 0 1.62 1.45.68 7.14 2.08 16.87t3.78 25.03q3.4 21.59 4.76 32.73 14.79-23.29 20.66-40.72 2.38-6.97 3.31-11.22.94-4.25.94-8.75 0-2.81-.39-6.89-.38-4.08-.89-8.84 0-1.02.72-1.82.73-.81 1.49-.81 1.45 0 1.7 1.44 1.11 6.63 1.11 13.26 0 11.39-3.62 22.83-3.61 11.43-11.34 25.88Q27.88-8.76 21.17 0q-1.11 1.36-1.96 1.36-.85 0-1.27-1.19z" fill="url(#b)" transform="translate(221.69 118.18)"/></g><g filter="url(#c)" transform="matrix(1 0 0 1.09202 -218.81 -25.75)"><path d="M17.94.17Q17-6.8 16.58-11.05q-.68-5.61-4.85-34-4.08-27.46-5.01-34.93.25-.77.97-1.41.73-.64 1.32-.64 1.19 0 1.62 1.45.68 7.14 2.08 16.87t3.78 25.03q3.4 21.59 4.76 32.73 14.79-23.29 20.66-40.72 2.38-6.97 3.31-11.22.94-4.25.94-8.75 0-2.81-.39-6.89-.38-4.08-.89-8.84 0-1.02.72-1.82.73-.81 1.49-.81 1.45 0 1.7 1.44 1.11 6.63 1.11 13.26 0 11.39-3.62 22.83-3.61 11.43-11.34 25.88Q27.88-8.76 21.17 0q-1.11 1.36-1.96 1.36-.85 0-1.27-1.19z" fill="url(#d)" transform="translate(221.69 118.18)"/></g></g></svg>