<svg xmlns="http://www.w3.org/2000/svg" version="1.1" xmlns:xlink="http://www.w3.org/1999/xlink" xmlns:svgjs="http://svgjs.com/svgjs" width="1000" height="1000"><rect width="1000" height="1000" rx="200" ry="200" fill="#383838" data-darkreader-inline-fill="" style="--darkreader-inline-fill:#2a2e2f;"></rect><g transform="matrix(5.905511811023622,0,0,5.905511811023622,350.00001122782555,200.0000037426085)"><svg xmlns="http://www.w3.org/2000/svg" version="1.1" xmlns:xlink="http://www.w3.org/1999/xlink" xmlns:svgjs="http://svgjs.com/svgjs" width="50.8" height="101.6"><svg xml:space="preserve" width="50.8" height="101.6" xmlns="http://www.w3.org/2000/svg"><defs><linearGradient id="a" x1="11.172" x2="83.014" y1="-34.79" y2="-34.79" gradientUnits="userSpaceOnUse" gradientTransform="scale(.7071 1.41421)"><stop offset="0" stop-color="#f0f" data-darkreader-inline-stopcolor="" style="--darkreader-inline-stopcolor:#cc00cc;"></stop><stop offset="1" stop-color="#0ff" data-darkreader-inline-stopcolor="" style="--darkreader-inline-stopcolor:#00cccc;"></stop></linearGradient></defs><path d="M21.1.2Q20-8 19.5-13q-.8-6.6-5.7-40Q9-85.3 7.9-94.1q.3-.9 1.15-1.65.85-.75 1.55-.75 1.4 0 1.9 1.7.8 8.4 2.45 19.85Q16.6-63.5 19.4-45.5 23.4-20.1 25-7q17.4-27.4 24.3-47.9 2.8-8.2 3.9-13.2t1.1-10.3q0-3.3-.45-8.1T52.8-96.9q0-1.2.85-2.15t1.75-.95q1.7 0 2 1.7 1.3 7.8 1.3 15.6 0 13.4-4.25 26.85Q50.2-42.4 41.1-25.4 32.8-10.3 24.9 0q-1.3 1.6-2.3 1.6-1 0-1.5-1.4z" fill="url(#a)" style="fill:url(#a)" transform="translate(-7.9 100)"></path></svg></svg></g></svg>