<svg width="20" height="20" viewBox="0 0 20 20" fill="none" xmlns="http://www.w3.org/2000/svg">
<path d="M2.29171 16.875H17.7084C18.5138 16.875 19.1667 16.2221 19.1667 15.4167V4.58333C19.1667 3.77792 18.5138 3.125 17.7084 3.125H2.29171C1.48629 3.125 0.833374 3.77792 0.833374 4.58333V15.4167C0.833374 16.2221 1.48629 16.875 2.29171 16.875Z" fill="#E0E0E0"/>
<path d="M10.8334 16.875H17.7084C18.5138 16.875 19.1667 16.2221 19.1667 15.4167V4.58333C19.1667 3.77792 18.5138 3.125 17.7084 3.125H2.29171C1.48629 3.125 0.833374 3.77792 0.833374 4.58333L10.8334 16.875Z" fill="#D9D9D9"/>
<path d="M2.81042 16.875H17.7083C18.5138 16.875 19.1667 16.222 19.1667 15.4166V4.79163L2.81042 16.875Z" fill="#EEEEEE"/>
<path d="M10.7271 16.875H17.7084C18.5138 16.875 19.1667 16.222 19.1667 15.4166V4.79163L7.82129 13.1733L10.7271 16.875Z" fill="#E0E0E0"/>
<path d="M17.7084 3.95831H2.29171C1.48629 3.95831 0.833374 3.77789 0.833374 4.58331V15.4166C0.833374 16.2221 1.48629 16.875 2.29171 16.875H2.91671V4.99998H17.0834V16.875H17.7084C18.5138 16.875 19.1667 16.2221 19.1667 15.4166V4.58331C19.1667 3.77789 18.5138 3.95831 17.7084 3.95831Z" fill="#CA3737"/>
<path d="M17.7084 3.125H10H2.29171C1.48629 3.125 0.833374 3.765 0.833374 4.58333C0.833374 5.08583 1.46587 5.52417 1.46587 5.52417L10 11.565L18.5342 5.52458C18.5342 5.52458 19.1667 5.08583 19.1667 4.58375C19.1667 3.765 18.5138 3.125 17.7084 3.125Z" fill="#F5F5F5"/>
<path d="M18.0192 3.15918L10 8.75001L1.98087 3.15918C1.32504 3.2996 0.833374 3.87376 0.833374 4.58335C0.833374 5.08585 1.46587 5.52418 1.46587 5.52418L10 11.565L18.5342 5.5246C18.5342 5.5246 19.1667 5.08585 19.1667 4.58376C19.1667 3.87376 18.675 3.2996 18.0192 3.15918Z" fill="#E84F4B"/>
</svg>
