<svg width="20" height="20" viewBox="0 0 20 20" fill="none" xmlns="http://www.w3.org/2000/svg">
<path d="M17.5 15.4167C17.5 16.5675 16.5675 17.5 15.4167 17.5H4.58333C3.43292 17.5 2.5 16.5675 2.5 15.4167V4.58333C2.5 3.4325 3.43292 2.5 4.58333 2.5H15.4167C16.5675 2.5 17.5 3.4325 17.5 4.58333V15.4167Z" fill="#0288D1"/>
<path d="M5 7.91667H7.08333V15H5V7.91667ZM6.03542 7.08333H6.02375C5.40208 7.08333 5 6.62 5 6.04125C5 5.45 5.41458 5 6.0475 5C6.68125 5 7.07167 5.45 7.08333 6.04125C7.08333 6.61958 6.68125 7.08333 6.03542 7.08333ZM15 15H12.9167V11.2087C12.9167 10.2929 12.4062 9.66792 11.5867 9.66792C10.9613 9.66792 10.6229 10.0896 10.4587 10.4971C10.3987 10.6429 10.4167 11.0462 10.4167 11.25V15H8.33333V7.91667H10.4167V9.00667C10.7171 8.54167 11.1875 7.91667 12.3908 7.91667C13.8817 7.91667 14.9996 8.85417 14.9996 10.9475L15 15Z" fill="white"/>
</svg>
