<svg xmlns="http://www.w3.org/2000/svg" width="353.85" height="144.89" xmlns:v="https://vecta.io/nano"><defs><filter id="A" x="-.029" y="-.084" width="1.057" height="1.263"><feFlood flood-color="#fff" result="A"/><feConvolveMatrix in="SourceGraphic" result="B" order="8,8" divisor="1" kernelMatrix="0 0 0 0 0 0 0 0 0 0 0 1 1 0 0 0 0 0 0 1 1 0 0 0 0 0 1 0 0 1 0 0 0 0 1 0 0 1 0 0 0 1 0 0 0 0 1 0 0 1 1 0 0 1 1 0 0 0 0 1 1 0 0 0 "/><feOffset dy="4" result="C"/><feComposite operator="in" in="A" result="D"/><feGaussianBlur in="C" stdDeviation="3"/><feColorMatrix values="0.7 0 0 0 0  0 0.7 0 0 0  0 0 0.7 0 0  0 0 0 0.3 0"/><feOffset dy="4" result="E"/><feOffset dy="2" in="B"/><feComposite operator="out" in="C"/><feGaussianBlur stdDeviation="1"/><feColorMatrix values="0 0 0 0 0  0 0 0 0 0  0 0 0 0 0  0 0 0 0.5 0"/><feComposite operator="in" in2="C"/><feOffset dy="1" result="G"/><feMerge><feMergeNode in="E"/><feMergeNode in="D"/><feMergeNode in="G"/><feMergeNode in="SourceGraphic"/></feMerge></filter><linearGradient id="B" x1="343.165" x2="9.185" y1="-58.669" y2="-50.641" gradientUnits="userSpaceOnUse"><stop offset="0" stop-color="#ffb200"/><stop offset=".5" stop-color="#e10057"/><stop offset="1" stop-color="#5a1a80"/></linearGradient></defs><g filter="url(#A)" transform="translate(-73.075 -10.745)"><g transform="translate(73.825 132.345)"><path d="M23.63.22h0q-1.23-9.18-1.79-14.78h0 0q-.9-7.39-6.38-44.8h0 0q-5.38-36.18-6.61-46.03h0 0q.33-1.01 1.29-1.85h0 0q.95-.84 1.73-.84h0 0q1.57 0 2.13 1.9h0 0q.9 9.41 2.74 22.24h0 0q1.85 12.82 4.99 32.98h0 0Q26.21-22.51 28-7.84h0 0q19.49-30.69 27.22-53.65h0 0q3.13-9.18 4.36-14.78h0 0q1.24-5.6 1.24-11.54h0 0q0-3.69-.51-9.07h0 0q-.5-5.38-1.17-11.65h0 0q0-1.34.95-2.41h0 0q.95-1.06 1.96-1.06h0 0q1.9 0 2.24 1.9h0 0q1.45 8.74 1.45 17.48h0 0q0 15-4.76 30.07h0 0q-4.76 15.06-14.95 34.1h0 0Q36.74-11.54 27.89 0h0 0q-1.46 1.79-2.58 1.79h0 0q-1.12 0-1.68-1.57zm62.95.79h0q-5.83 0-8.68-4.59h0 0q-2.86-4.6-2.86-10.98h0 0q0-10.19 3.42-19.77h0 0q3.41-9.57 9.35-15.85h0 0q5.71-6.38 12.88-6.38h0 0q10.3 0 10.3 15.68h0 0q0 7.84-2.57 16.02h0 0q-2.58 8.17-6.67 14.56h0 0q-4.09 6.38-8.45 9.18h0 0q-3.36 2.13-6.72 2.13zm.89-5.04h0q3.47 0 7.79-6.05h0 0q4.31-6.05 7.22-15.01h0 0q3.02-8.96 3.02-15.23h0 0q0-6.5-.78-8.06h0 0q-.67-1.68-1.68-2.36h0 0q-1.01-.67-3.14-.67h0 0q-2.35 0-4.92 1.79h0 0q-5.16 3.25-8.96 11.2h0 0q-5.94 11.88-5.94 23.08h0 0q0 7.61 4.37 10.52h0 0q1.57.79 3.02.79zM128.8.45h0q-3.92 0-5.88-2.02h0 0q-1.96-2.01-1.96-7.28h0 0q0-2.91.67-6.72h0l1.01-6.38 1.23-5.27.67-3.02L126-36.4h0q.22-1.46 1.01-4.7h0l.56-2.24 1.01-4.82.67-3.36h0q-4.37 0-8.07.56h0 0q-2.24-.34-2.24-1.9h0 0q0-1.12.9-2.13h0 0q.9-1.01 2.13-1.12h0l8.06.22h0q0 0 .56-2.8h0 0q.23-2.24.9-5.15h0 0q.67-2.91 1.68-5.15h0 0q1.01-2.47 2.91-2.47h0 0q1.79 0 1.79 2.02h0v.67h0q-.45 2.24-.78 3.25h0L135.18-56h8.07 0q4.25 0 5.26.67h0 0q.9.67.9 1.68h0 0q0 1.79-1.63 2.3h0 0q-1.62.5-5.54.5h0 0q-3.58 0-7.95-.33h0 0q-.67 3.69-4.59 20.49h0 0q-3.59 15.23-3.59 19.27h0 0q0 4.36 1.01 5.71h0 0q.56.89 2.35.89h0 0q1.57 0 2.75-.84h0 0q1.17-.84 2.4-2.29h0 0q1.24-1.57 2.13-2.35h0 0q.9-.79 1.91-.79h0 0q2.24 0 2.24 2.24h0 0q0 1.12-2.24 3.7h0 0q-2.24 2.57-4.26 4.14h0 0Q132.61.45 128.8.45zm35.84.67h0q-3.58 0-5.6-1.18h0 0q-2.02-1.17-3.25-3.64h0 0q-2.35-4.36-2.35-10.52h0 0q0-10.76 3.25-20.44h0 0q3.25-9.69 8.85-16.3h0 0q5.37-6.27 11.76-6.27h0 0q3.36 0 5.32 2.74h0 0q1.96 2.75 1.96 6.67h0 0q0 6.83-3.53 11.87h0 0q-3.53 5.04-9.47 8.4h0 0q-5.15 3.02-12.54 6.05h0l-.22 8.06h0q0 9.41 5.71 9.41h0 0q2.35 0 4.53-.9h0 0q2.19-.89 4.76-2.46h0 0q3.03-1.79 4.26-1.79h0 0q1.9 0 1.9 2.01h0 0q0 1.46-2.74 3.47h0 0q-2.74 2.02-6.44 3.42h0 0q-3.7 1.4-6.16 1.4zm-4.7-28h0q7.5-3.02 11.42-5.38h0 0q3.92-2.35 5.99-5.93h0 0q2.07-3.59 2.07-9.41h0 0q0-4.37-3.69-4.37h0 0q-3.25 0-7.62 5.94h0 0q-4.59 5.93-7.39 15.57h0 0q-.78 2.68-.78 3.58zm53.42 28.11h0q-7.73 0-14.17-2.57h0 0Q192.75-3.92 189-8.9h0 0q-3.75-4.99-3.75-11.82h0 0q0-10.64 6.38-18.37h0 0q1.91-2.35 4.15-4.48h0 0q2.24-2.13 3.58-2.13h0 0q2.13 0 2.13 1.91h0 0q0 .89-.45 1.57h0 0q-5.6 5.04-8.01 9.74h0 0q-2.41 4.7-2.41 10.19h0 0q0 9.41 6.67 14h0 0q6.66 4.59 16.63 4.59h0 0q6.38 0 11.26-3.3h0 0q4.87-3.3 7.5-8.9h0 0q2.63-5.6 2.63-12.1h0 0q0-9.86-9.07-30.8h0 0q-9.07-21.17-9.07-29.46h0 0q0-8.62 4.14-14.33h0 0q4.15-5.71 11.87-5.71h0 0q5.94 0 9.92 2.96h0 0q3.97 2.97 5.88 6.72h0 0q1.9 3.76 1.9 6.11h0 0q0 1.12-.95 1.96h0 0q-.95.84-1.96.84h0 0q-1.68 0-2.02-2.02h0 0q-.78-5.15-4.25-8.51h0 0q-3.48-3.36-8.52-3.36h0 0q-5.04 0-7.84 3.53h0 0q-2.8 3.53-2.8 8.79h0 0q0 7.39 2.24 14.39h0 0q2.24 7 6.84 17.64h0 0q4.48 10.19 6.77 17.31h0 0q2.3 7.11 2.3 14.5h0 0q0 7.17-2.8 13.72h0 0q-2.8 6.55-8.96 10.75h0 0q-6.16 4.2-15.57 4.2zm74.59 1.46h0q-3.36 0-3.36-8.96h0 0q0-4.71.79-9.41h0 0q.78-4.7 2.46-12.21h0l.9-4.14h0q-1.91 3.69-4.48 9.41h0 0q-4.6 9.4-9.24 16.46h0 0Q270.37.9 265.78.9h0 0q-6.05 0-6.05-11.99h0 0q0-14.89 4.81-34.83h0l1.8-6.83h0q1-3.7 3.47-3.7h0 0q1.34 0 1.9 1.91h0 0q-.22 2.01-.89 4.81h0 0q-.68 2.8-.9 4.03h0 0q-2.13 8.18-3.47 16.3h0 0q-1.35 8.12-1.57 19.77h0 0q0 4.48 1.46 4.48h0 0q2.12 0 5.71-4.99h0 0q3.58-4.98 8.85-15.17h0 0q5.15-11.09 9.85-19.99h0 0q4.71-8.91 7.39-8.91h0 0q1.91 0 1.91 2.13h0 0q0 1.57-2.8 8.85h0 0q-2.13 5.49-2.8 7.95h0 0q-3.92 13.44-4.93 29.34h0 0q0 1.46.28 2.19h0 0q.28.73 1.01 1.51h0 0q.73.78.73 1.9h0 0q0 1.12-1.24 2.08h0 0q-1.23.95-2.35.95zm33.38-1.57h0q-4.93 0-7.56-4.37h0 0q-2.63-4.37-2.63-10.86h0 0q0-4.82.56-9.47h0 0q.56-4.64 1.68-11.03h0l.44-2.91h0q1.68-10.53 2.8-16.35h0 0q.23-1.46.45-2.58h0 0q.23-1.12.34-2.01h0 0q1.01-5.27 1.79-8.52h0 0q.56-3.36 2.91-14.67h0 0q1.79-7.95 4.59-24.08h0 0q.79-1.79 2.24-1.79h0 0q2.92 0 2.92 2.46h0l-.23.79h0q-2.69 18.14-6.27 34.27h0 0q-4.03 18.03-5.94 27.55h0 0q3.81-6.83 7.28-10.36h0 0q3.48-3.53 7.62-3.53h0 0q4.14 0 6.66 3.2h0 0q2.52 3.19 2.52 7.33h0 0q0 8.63-2.63 19.66h0 0q-2.63 11.03-6.89 17.97h0 0q-5.6 9.3-12.65 9.3zm0-5.71h0q4.03 0 8.06-6.72h0 0q5.38-8.63 7.62-22.29h0 0q.56-4.26.56-8.06h0 0q0-4.6-.84-6.89h0 0q-.84-2.3-3.08-2.3h0 0q-2.35 0-5.99 3.98h0 0q-3.64 3.97-6.56 9.85h0 0q-2.91 5.88-3.47 11.04h0 0q-.78 7.5-.78 11.87h0 0q0 9.52 4.48 9.52z" fill="url(#B)"/></g></g></svg>