<svg xmlns="http://www.w3.org/2000/svg" viewBox="0 0 3539 1449"><defs><linearGradient id="b" x1="3432" x2="92" y1="-587" y2="-506" gradientUnits="userSpaceOnUse"><stop offset="0" stop-color="#ffb200"/><stop offset=".5" stop-color="#e10057"/><stop offset="1" stop-color="#5a1a80"/></linearGradient><filter id="a" width="11" height="13" x="0" y="-1"><feFlood flood-color="#fff" result="A"/><feConvolveMatrix divisor="1" in="SourceGraphic" kernelMatrix="0 0 0 0 0 0 0 0 0 0 0 1 1 0 0 0 0 0 0 1 1 0 0 0 0 0 1 0 0 1 0 0 0 0 1 0 0 1 0 0 0 1 0 0 0 0 1 0 0 1 1 0 0 1 1 0 0 0 0 1 1 0 0 0" order="8,8" result="B"/><feOffset dy="4" result="C"/><feComposite in="A" operator="in" result="D"/><feGaussianBlur in="C" stdDeviation="3"/><feColorMatrix values="0.7 0 0 0 0 0 0.7 0 0 0 0 0 0.7 0 0 0 0 0 0.3 0"/><feOffset dy="4" result="E"/><feOffset dy="2" in="B"/><feComposite in="C" operator="out"/><feGaussianBlur stdDeviation="1"/><feColorMatrix values="0 0 0 0 0 0 0 0 0 0 0 0 0 0 0 0 0 0 0.5 0"/><feComposite in2="C" operator="in"/><feOffset dy="1" result="G"/><feMerge><feMergeNode in="E"/><feMergeNode in="D"/><feMergeNode in="G"/><feMergeNode in="SourceGraphic"/></feMerge></filter></defs><g filter="url(#a)" transform="translate(-730-107)"><path d="m236 2-18-148q-9-73-63-448-54-361-66-460 3-10 12-18 10-9 18-9 15 0 21 20 9 93 27 222l50 330Q262-226 280-80q195-306 272-536 31-92 44-148 12-56 12-115 0-37-5-90l-12-117q0-14 10-24 10-11 20-11 19 0 22 19 14 87 14 175 0 150-47 300-48 151-150 342-93 170-180 285-15 18-26 18T236 2zm630 8q-58 0-87-46-29-46-29-110 0-102 35-197 34-96 93-159 57-64 129-64 103 0 103 157 0 79-26 160-26 82-67 146-40 64-84 92Q899 10 866 10zm9-50q34 0 78-60 43-61 72-150 30-90 30-153 0-65-8-80-7-18-17-24-10-7-31-7-24 0-50 18-50 32-89 112-60 119-60 230 0 77 44 106 16 8 30 8zM1288 5q-40 0-59-20-20-20-20-73 0-30 7-68l10-64 13-52 6-30 15-62q2-15 10-47l6-22 10-49 7-33q-44 0-81 5-23-3-23-19 0-10 10-20 8-11 20-12l81 2 6-28q2-22 9-51 7-30 17-52 10-25 29-25 18 0 18 20v7l-8 33-20 95h82q42 0 52 7 10 6 10 16 0 18-17 24-16 4-56 4-35 0-80-3-6 37-45 205-36 152-36 193 0 43 10 57 6 9 24 9 15 0 27-9 12-8 24-23l22-23q9-8 19-8 22 0 22 22 0 12-22 37-23 26-43 42-18 14-56 14zm358 6q-35 0-56-12-20-11-32-36-24-44-24-105 0-108 33-205 32-96 88-163 54-62 118-62 34 0 53 27 20 28 20 67 0 68-35 119-36 50-95 84-52 30-126 60l-2 80q0 95 57 95 24 0 46-10 22-8 47-24 30-18 43-18 19 0 19 20 0 15-28 35-27 20-64 34t-62 14zm-47-280q75-30 115-54 39-23 60-59 20-36 20-94 0-44-37-44-32 0-76 60-46 59-74 155-8 27-8 36zm535 281q-78 0-142-25Q1928-40 1890-90q-38-50-38-118 0-107 64-184 20-23 42-45 22-21 36-21 20 0 20 20 0 8-4 15-56 50-80 97-24 47-24 102 0 94 67 140t166 46q64 0 113-33t75-89q26-56 26-121 0-99-90-308-91-212-91-295 0-86 41-143 42-57 119-57 60 0 99 30 40 30 59 67 19 37 19 60 0 12-10 20-10 9-20 9-16 0-20-20-7-52-42-85-35-34-85-34t-79 35q-28 36-28 88 0 74 23 144 22 70 68 176 45 102 68 174 23 70 23 145 0 71-28 137-28 65-90 107-61 42-155 42zM2880 27q-34 0-34-90 0-47 8-94t24-122l10-41q-20 37-45 94-46 94-93 164-46 71-92 71-60 0-60-120 0-149 47-348l18-69q10-37 35-37 13 0 20 20-3 20-10 48l-9 40q-21 82-34 163-14 81-16 198 0 44 14 44 22 0 57-50 36-50 89-151 52-111 98-200 48-90 74-90 20 0 20 22 0 16-29 89-20 55-27 80-40 134-50 293 0 14 3 22 3 7 10 15 7 7 7 19 0 10-12 20t-24 10zM3213 10q-49 0-75-43-27-44-27-110 0-47 6-94 6-46 17-110l4-30 28-163 5-25 3-20q10-53 18-86l30-146q17-80 45-241 8-18 22-18 30 0 30 24l-3 8Q3290-860 3254-700l-60 276q38-69 73-104t76-35q42 0 67 32t25 73q0 86-26 196-27 110-70 180-55 93-126 93zm0-57q40 0 80-67 55-86 77-223 6-43 6-80 0-47-9-70-8-22-30-22-24 0-60 40Q3240-430 3210-370q-30 59-35 110-7 75-7 119 0 95 44 95" fill="url(#b)" transform="translate( 738 1323)"/></g></svg>
