<svg xml:space="preserve" width="597.6" height="204.8" xmlns="http://www.w3.org/2000/svg"><defs><linearGradient id="a" x1="9.249" x2="359.09" y1="-166.721" y2="-166.721" gradientUnits="userSpaceOnUse" gradientTransform="scale(1.7082 .5854)"><stop offset="0" stop-color="#f0f"/><stop offset="1" stop-color="#0ff"/></linearGradient></defs><path d="M42.2.4Q40-16 39-26q-1.6-13.2-11.4-80-9.6-64.6-11.8-82.2.6-1.8 2.3-3.3 1.7-1.5 3.1-1.5 2.8 0 3.8 3.4 1.6 16.8 4.9 39.7Q33.2-127 38.8-91q8 50.8 11.2 77 34.8-54.8 48.6-95.8 5.6-16.4 7.8-26.4t2.2-20.6q0-6.6-.9-16.2t-2.1-20.8q0-2.4 1.7-4.3t3.5-1.9q3.4 0 4 3.4 2.6 15.6 2.6 31.2 0 26.8-8.5 53.7-8.5 26.9-26.7 60.9Q65.6-20.6 49.8 0q-2.6 3.2-4.6 3.2-2 0-3-2.8zm112.4 1.4q-10.4 0-15.5-8.2T134-26q0-18.2 6.1-35.3 6.1-17.1 16.7-28.3 10.2-11.4 23-11.4 18.4 0 18.4 28 0 14-4.6 28.6-4.6 14.6-11.9 26Q174.4-7 166.6-2q-6 3.8-12 3.8zm1.6-9q6.2 0 13.9-10.8T183-44.8q5.4-16 5.4-27.2 0-11.6-1.4-14.4-1.2-3-3-4.2-1.8-1.2-5.6-1.2-4.2 0-8.8 3.2-9.2 5.8-16 20Q143-47.4 143-27.4q0 13.6 7.8 18.8 2.8 1.4 5.4 1.4zm73.8 8q-7 0-10.5-3.6t-3.5-13q0-5.2 1.2-12l1.8-11.4 2.2-9.4 1.2-5.4 2.6-11q.4-2.6 1.8-8.4l1-4 1.8-8.6 1.2-6q-7.8 0-14.4 1-4-.6-4-3.4 0-2 1.6-3.8 1.6-1.8 3.8-2l14.4.4 1-5q.4-4 1.6-9.2 1.2-5.2 3-9.2 1.8-4.4 5.2-4.4 3.2 0 3.2 3.6v1.2q-.8 4-1.4 5.8l-3.4 17h14.4q7.6 0 9.4 1.2 1.6 1.2 1.6 3 0 3.2-2.9 4.1-2.9.9-9.9.9-6.4 0-14.2-.6-1.2 6.6-8.2 36.6-6.4 27.2-6.4 34.4 0 7.8 1.8 10.2 1 1.6 4.2 1.6 2.8 0 4.9-1.5 2.1-1.5 4.3-4.1 2.2-2.8 3.8-4.2 1.6-1.4 3.4-1.4 4 0 4 4 0 2-4 6.6T240-1.8Q236.8.8 230 .8zM294 2q-6.4 0-10-2.1-3.6-2.1-5.8-6.5-4.2-7.8-4.2-18.8 0-19.2 5.8-36.5T295.6-91q9.6-11.2 21-11.2 6 0 9.5 4.9t3.5 11.9q0 12.2-6.3 21.2t-16.9 15q-9.2 5.4-22.4 10.8l-.4 14.4q0 16.8 10.2 16.8 4.2 0 8.1-1.6 3.9-1.6 8.5-4.4 5.4-3.2 7.6-3.2 3.4 0 3.4 3.6 0 2.6-4.9 6.2T305-.5Q298.4 2 294 2Zm-8.4-50q13.4-5.4 20.4-9.6 7-4.2 10.7-10.6 3.7-6.4 3.7-16.8 0-7.8-6.6-7.8-5.8 0-13.6 10.6Q292-71.6 287-54.4q-1.4 4.8-1.4 6.4zM381 2.2q-13.8 0-25.3-4.6t-18.2-13.5q-6.7-8.9-6.7-21.1 0-19 11.4-32.8 3.4-4.2 7.4-8t6.4-3.8q3.8 0 3.8 3.4 0 1.6-.8 2.8-10 9-14.3 17.4-4.3 8.4-4.3 18.2 0 16.8 11.9 25T382-6.6q11.4 0 20.1-5.9 8.7-5.9 13.4-15.9 4.7-10 4.7-21.6 0-17.6-16.2-55-16.2-37.8-16.2-52.6 0-15.4 7.4-25.6 7.4-10.2 21.2-10.2 10.6 0 17.7 5.3t10.5 12q3.4 6.7 3.4 10.9 0 2-1.7 3.5t-3.5 1.5q-3 0-3.6-3.6-1.4-9.2-7.6-15.2-6.2-6-15.2-6t-14 6.3q-5 6.3-5 15.7 0 13.2 4 25.7t12.2 31.5q8 18.2 12.1 30.9t4.1 25.9q0 12.8-5 24.5t-16 19.2q-11 7.5-27.8 7.5zm133.2 2.6q-6 0-6-16 0-8.4 1.4-16.8t4.4-21.8l1.6-7.4q-3.4 6.6-8 16.8-8.2 16.8-16.5 29.4-8.3 12.6-16.5 12.6-10.8 0-10.8-21.4 0-26.6 8.6-62.2l3.2-12.2q1.8-6.6 6.2-6.6 2.4 0 3.4 3.4-.4 3.6-1.6 8.6-1.2 5-1.6 7.2-3.8 14.6-6.2 29.1-2.4 14.5-2.8 35.3 0 8 2.6 8 3.8 0 10.2-8.9 6.4-8.9 15.8-27.1 9.2-19.8 17.6-35.7 8.4-15.9 13.2-15.9 3.4 0 3.4 3.8 0 2.8-5 15.8-3.8 9.8-5 14.2-7 24-8.8 52.4 0 2.6.5 3.9.5 1.3 1.8 2.7 1.3 1.4 1.3 3.4t-2.2 3.7q-2.2 1.7-4.2 1.7zM573.8 2q-8.8 0-13.5-7.8-4.7-7.8-4.7-19.4 0-8.6 1-16.9 1-8.3 3-19.7l.8-5.2q3-18.8 5-29.2.4-2.6.8-4.6.4-2 .6-3.6 1.8-9.4 3.2-15.2 1-6 5.2-26.2 3.2-14.2 8.2-43 1.4-3.2 4-3.2 5.2 0 5.2 4.4l-.4 1.4q-4.8 32.4-11.2 61.2-7.2 32.2-10.6 49.2 6.8-12.2 13-18.5 6.2-6.3 13.6-6.3 7.4 0 11.9 5.7t4.5 13.1q0 15.4-4.7 35.1Q604-27 596.4-14.6 586.4 2 573.8 2Zm0-10.2q7.2 0 14.4-12 9.6-15.4 13.6-39.8 1-7.6 1-14.4 0-8.2-1.5-12.3-1.5-4.1-5.5-4.1-4.2 0-10.7 7.1-6.5 7.1-11.7 17.6-5.2 10.5-6.2 19.7-1.4 13.4-1.4 21.2 0 17 8 17z" fill="url(#a)" style="fill:url(#a)" transform="translate(-15.8 200)"/></svg>