<svg width="20" height="20" viewBox="0 0 20 20" fill="none" xmlns="http://www.w3.org/2000/svg">
<path d="M5.59998 1.59619C3.39544 1.59619 1.59998 3.39166 1.59998 5.59619V14.3962C1.59998 16.6007 3.39544 18.3962 5.59998 18.3962H14.4C16.6045 18.3962 18.4 16.6007 18.4 14.3962V5.59619C18.4 3.39166 16.6045 1.59619 14.4 1.59619H5.59998ZM7.20232 4.81338C7.45352 4.82418 7.68421 4.96571 7.82341 5.18291C7.98181 5.43011 8.22763 5.81376 8.54763 6.31416C8.83963 6.77056 8.85999 7.36003 8.59919 7.83603L8.01326 8.66963C7.85486 8.89523 7.82326 9.18398 7.92966 9.43838C8.09526 9.83438 8.41629 10.443 8.98669 11.0134C9.55709 11.5838 10.1657 11.9048 10.5617 12.0704C10.8161 12.1768 11.1048 12.1452 11.3304 11.9868L12.164 11.4009C12.64 11.1401 13.2295 11.1608 13.6859 11.4524C14.1863 11.7724 14.57 12.0183 14.8172 12.1767C15.0344 12.3159 15.1759 12.5466 15.1867 12.7978C15.2483 14.2234 14.1438 14.8009 13.8226 14.8009C13.6002 14.8009 10.9265 15.1048 7.91091 12.0892C4.89531 9.07356 5.19919 6.39984 5.19919 6.17744C5.19919 5.85624 5.77672 4.75178 7.20232 4.81338Z" fill="black"/>
</svg>
