<svg width="481.337451171875px" height="320.00747070312497px" xmlns="http://www.w3.org/2000/svg" viewBox="9.331274414062506 -85.00373535156248 481.337451171875 320.00747070312497" style="background: rgba(0, 0, 0, 0);" preserveAspectRatio="xMidYMid"><defs><linearGradient id="editing-shiny-gradient" x1="0.9987820251299121" x2="0.0012179748700879012" y1="0.46512176312793724" y2="0.5348782368720628" gradientUnits="objectBoundingBox"><stop offset="0.0" stop-color="#ffb200"></stop><stop offset="0.5" stop-color="#e10057"></stop><stop offset="1.0" stop-color="#5A1A80"></stop></linearGradient><linearGradient id="editing-shiny-gradient2" x1="0" x2="0" y1="0" y2="1"><stop offset="0.2" stop-color="#fff" stop-opacity="0.8"></stop><stop offset="0.8" stop-color="#fff" stop-opacity="0"></stop></linearGradient><filter id="editing-shiny2" x="-100%" y="-100%" width="300%" height="300%"><feMorphology operator="erode" radius="2"></feMorphology></filter><filter id="editing-shiny" x="-100%" y="-100%" width="300%" height="300%"><feFlood flood-color="#fff" result="flood"></feFlood><feConvolveMatrix in="SourceGraphic" result="conv" order="8,8" divisor="1" kernelMatrix="0 0 0 0 0 0 0 0 0 0 0 1 1 0 0 0 0 0 0 1 1 0 0 0 0 0 1 0 0 1 0 0 0 0 1 0 0 1 0 0 0 1 0 0 0 0 1 0 0 1 1 0 0 1 1 0 0 0 0 1 1 0 0 0 "></feConvolveMatrix><feOffset dx="0" dy="4" in="conv" result="offset"></feOffset><feComposite operator="in" in="flood" in2="offset" result="comp"></feComposite><feGaussianBlur in="offset" stdDeviation="3" result="shadow"></feGaussianBlur><feColorMatrix in="shadow" type="matrix" values="0.7 0 0 0 0  0 0.7 0 0 0  0 0 0.7 0 0  0 0 0 0.3 0" result="dark-shadow"></feColorMatrix><feOffset dx="0" dy="4" in="dark-shadow" result="offset-shadow"></feOffset><feOffset dx="0" dy="2" in="conv" result="offset-2"></feOffset><feComposite operator="out" in="offset" in2="offset-2" result="edge-diff"></feComposite><feGaussianBlur in="edge-diff" stdDeviation="1" result="edge-blur"></feGaussianBlur><feColorMatrix in="edge-blur" result="edge-shadow" type="matrix" values="0 0 0 0 0  0 0 0 0 0  0 0 0 0 0  0 0 0 0.5 0"></feColorMatrix><feComposite operator="in" in="edge-shadow" in2="offset" result="edge-shadow-in"></feComposite><feOffset dx="0" dy="1" in="edge-shadow-in" result="edge-shadow-final"></feOffset><feMerge result="out"><feMergeNode in="offset-shadow"></feMergeNode><feMergeNode in="comp"></feMergeNode><feMergeNode in="edge-shadow-final"></feMergeNode><feMergeNode in="SourceGraphic"></feMergeNode></feMerge></filter></defs><g filter="url(#editing-shiny)"><g transform="translate(73.82500267028809, 132.34500122070312)"><path d="M23.63 0.22L23.63 0.22Q22.40-8.96 21.84-14.56L21.84-14.56L21.84-14.56Q20.94-21.95 15.46-59.36L15.46-59.36L15.46-59.36Q10.08-95.54 8.85-105.39L8.85-105.39L8.85-105.39Q9.18-106.40 10.14-107.24L10.14-107.24L10.14-107.24Q11.09-108.08 11.87-108.08L11.87-108.08L11.87-108.08Q13.44-108.08 14-106.18L14-106.18L14-106.18Q14.90-96.77 16.74-83.94L16.74-83.94L16.74-83.94Q18.59-71.12 21.73-50.96L21.73-50.96L21.73-50.96Q26.21-22.51 28-7.84L28-7.84L28-7.84Q47.49-38.53 55.22-61.49L55.22-61.49L55.22-61.49Q58.35-70.67 59.58-76.27L59.58-76.27L59.58-76.27Q60.82-81.87 60.82-87.81L60.82-87.81L60.82-87.81Q60.82-91.50 60.31-96.88L60.31-96.88L60.31-96.88Q59.81-102.26 59.14-108.53L59.14-108.53L59.14-108.53Q59.14-109.87 60.09-110.94L60.09-110.94L60.09-110.94Q61.04-112 62.05-112L62.05-112L62.05-112Q63.95-112 64.29-110.10L64.29-110.10L64.29-110.10Q65.74-101.36 65.74-92.62L65.74-92.62L65.74-92.62Q65.74-77.62 60.98-62.55L60.98-62.55L60.98-62.55Q56.22-47.49 46.03-28.45L46.03-28.45L46.03-28.45Q36.74-11.54 27.89 0L27.89 0L27.89 0Q26.43 1.79 25.31 1.79L25.31 1.79L25.31 1.79Q24.19 1.79 23.63 0.22L23.63 0.22ZM86.58 1.01L86.58 1.01Q80.75 1.01 77.90-3.58L77.90-3.58L77.90-3.58Q75.04-8.18 75.04-14.56L75.04-14.56L75.04-14.56Q75.04-24.75 78.46-34.33L78.46-34.33L78.46-34.33Q81.87-43.90 87.81-50.18L87.81-50.18L87.81-50.18Q93.52-56.56 100.69-56.56L100.69-56.56L100.69-56.56Q110.99-56.56 110.99-40.88L110.99-40.88L110.99-40.88Q110.99-33.04 108.42-24.86L108.42-24.86L108.42-24.86Q105.84-16.69 101.75-10.30L101.75-10.30L101.75-10.30Q97.66-3.92 93.30-1.12L93.30-1.12L93.30-1.12Q89.94 1.01 86.58 1.01L86.58 1.01ZM87.47-4.03L87.47-4.03Q90.94-4.03 95.26-10.08L95.26-10.08L95.26-10.08Q99.57-16.13 102.48-25.09L102.48-25.09L102.48-25.09Q105.50-34.05 105.50-40.32L105.50-40.32L105.50-40.32Q105.50-46.82 104.72-48.38L104.72-48.38L104.72-48.38Q104.05-50.06 103.04-50.74L103.04-50.74L103.04-50.74Q102.03-51.41 99.90-51.41L99.90-51.41L99.90-51.41Q97.55-51.41 94.98-49.62L94.98-49.62L94.98-49.62Q89.82-46.37 86.02-38.42L86.02-38.42L86.02-38.42Q80.08-26.54 80.08-15.34L80.08-15.34L80.08-15.34Q80.08-7.73 84.45-4.82L84.45-4.82L84.45-4.82Q86.02-4.03 87.47-4.03L87.47-4.03ZM128.80 0.45L128.80 0.45Q124.88 0.45 122.92-1.57L122.92-1.57L122.92-1.57Q120.96-3.58 120.96-8.85L120.96-8.85L120.96-8.85Q120.96-11.76 121.63-15.57L121.63-15.57L122.64-21.95L123.87-27.22L124.54-30.24L126-36.40L126-36.40Q126.22-37.86 127.01-41.10L127.01-41.10L127.57-43.34L128.58-48.16L129.25-51.52L129.25-51.52Q124.88-51.52 121.18-50.96L121.18-50.96L121.18-50.96Q118.94-51.30 118.94-52.86L118.94-52.86L118.94-52.86Q118.94-53.98 119.84-54.99L119.84-54.99L119.84-54.99Q120.74-56 121.97-56.11L121.97-56.11L130.03-55.89L130.03-55.89Q130.03-55.89 130.59-58.69L130.59-58.69L130.59-58.69Q130.82-60.93 131.49-63.84L131.49-63.84L131.49-63.84Q132.16-66.75 133.17-68.99L133.17-68.99L133.17-68.99Q134.18-71.46 136.08-71.46L136.08-71.46L136.08-71.46Q137.87-71.46 137.87-69.44L137.87-69.44L137.87-68.77L137.87-68.77Q137.42-66.53 137.09-65.52L137.09-65.52L135.18-56L143.25-56L143.25-56Q147.50-56 148.51-55.33L148.51-55.33L148.51-55.33Q149.41-54.66 149.41-53.65L149.41-53.65L149.41-53.65Q149.41-51.86 147.78-51.35L147.78-51.35L147.78-51.35Q146.16-50.85 142.24-50.85L142.24-50.85L142.24-50.85Q138.66-50.85 134.29-51.18L134.29-51.18L134.29-51.18Q133.62-47.49 129.70-30.69L129.70-30.69L129.70-30.69Q126.11-15.46 126.11-11.42L126.11-11.42L126.11-11.42Q126.11-7.06 127.12-5.71L127.12-5.71L127.12-5.71Q127.68-4.82 129.47-4.82L129.47-4.82L129.47-4.82Q131.04-4.82 132.22-5.66L132.22-5.66L132.22-5.66Q133.39-6.50 134.62-7.95L134.62-7.95L134.62-7.95Q135.86-9.52 136.75-10.30L136.75-10.30L136.75-10.30Q137.65-11.09 138.66-11.09L138.66-11.09L138.66-11.09Q140.90-11.09 140.90-8.85L140.90-8.85L140.90-8.85Q140.90-7.73 138.66-5.15L138.66-5.15L138.66-5.15Q136.42-2.58 134.40-1.01L134.40-1.01L134.40-1.01Q132.61 0.45 128.80 0.45L128.80 0.45ZM164.64 1.12L164.64 1.12Q161.06 1.12 159.04-0.06L159.04-0.06L159.04-0.06Q157.02-1.23 155.79-3.70L155.79-3.70L155.79-3.70Q153.44-8.06 153.44-14.22L153.44-14.22L153.44-14.22Q153.44-24.98 156.69-34.66L156.69-34.66L156.69-34.66Q159.94-44.35 165.54-50.96L165.54-50.96L165.54-50.96Q170.91-57.23 177.30-57.23L177.30-57.23L177.30-57.23Q180.66-57.23 182.62-54.49L182.62-54.49L182.62-54.49Q184.58-51.74 184.58-47.82L184.58-47.82L184.58-47.82Q184.58-40.99 181.05-35.95L181.05-35.95L181.05-35.95Q177.52-30.91 171.58-27.55L171.58-27.55L171.58-27.55Q166.43-24.53 159.04-21.50L159.04-21.50L158.82-13.44L158.82-13.44Q158.82-4.03 164.53-4.03L164.53-4.03L164.53-4.03Q166.88-4.03 169.06-4.93L169.06-4.93L169.06-4.93Q171.25-5.82 173.82-7.39L173.82-7.39L173.82-7.39Q176.85-9.18 178.08-9.18L178.08-9.18L178.08-9.18Q179.98-9.18 179.98-7.17L179.98-7.17L179.98-7.17Q179.98-5.71 177.24-3.70L177.24-3.70L177.24-3.70Q174.50-1.68 170.80-0.28L170.80-0.28L170.80-0.28Q167.10 1.12 164.64 1.12L164.64 1.12ZM159.94-26.88L159.94-26.88Q167.44-29.90 171.36-32.26L171.36-32.26L171.36-32.26Q175.28-34.61 177.35-38.19L177.35-38.19L177.35-38.19Q179.42-41.78 179.42-47.60L179.42-47.60L179.42-47.60Q179.42-51.97 175.73-51.97L175.73-51.97L175.73-51.97Q172.48-51.97 168.11-46.03L168.11-46.03L168.11-46.03Q163.52-40.10 160.72-30.46L160.72-30.46L160.72-30.46Q159.94-27.78 159.94-26.88L159.94-26.88ZM213.36 1.23L213.36 1.23Q205.63 1.23 199.19-1.34L199.19-1.34L199.19-1.34Q192.75-3.92 189-8.90L189-8.90L189-8.90Q185.25-13.89 185.25-20.72L185.25-20.72L185.25-20.72Q185.25-31.36 191.63-39.09L191.63-39.09L191.63-39.09Q193.54-41.44 195.78-43.57L195.78-43.57L195.78-43.57Q198.02-45.70 199.36-45.70L199.36-45.70L199.36-45.70Q201.49-45.70 201.49-43.79L201.49-43.79L201.49-43.79Q201.49-42.90 201.04-42.22L201.04-42.22L201.04-42.22Q195.44-37.18 193.03-32.48L193.03-32.48L193.03-32.48Q190.62-27.78 190.62-22.29L190.62-22.29L190.62-22.29Q190.62-12.88 197.29-8.29L197.29-8.29L197.29-8.29Q203.95-3.70 213.92-3.70L213.92-3.70L213.92-3.70Q220.30-3.70 225.18-7L225.18-7L225.18-7Q230.05-10.30 232.68-15.90L232.68-15.90L232.68-15.90Q235.31-21.50 235.31-28L235.31-28L235.31-28Q235.31-37.86 226.24-58.80L226.24-58.80L226.24-58.80Q217.17-79.97 217.17-88.26L217.17-88.26L217.17-88.26Q217.17-96.88 221.31-102.59L221.31-102.59L221.31-102.59Q225.46-108.30 233.18-108.30L233.18-108.30L233.18-108.30Q239.12-108.30 243.10-105.34L243.10-105.34L243.10-105.34Q247.07-102.37 248.98-98.62L248.98-98.62L248.98-98.62Q250.88-94.86 250.88-92.51L250.88-92.51L250.88-92.51Q250.88-91.39 249.93-90.55L249.93-90.55L249.93-90.55Q248.98-89.71 247.97-89.71L247.97-89.71L247.97-89.71Q246.29-89.71 245.95-91.73L245.95-91.73L245.95-91.73Q245.17-96.88 241.70-100.24L241.70-100.24L241.70-100.24Q238.22-103.60 233.18-103.60L233.18-103.60L233.18-103.60Q228.14-103.60 225.34-100.07L225.34-100.07L225.34-100.07Q222.54-96.54 222.54-91.28L222.54-91.28L222.54-91.28Q222.54-83.89 224.78-76.89L224.78-76.89L224.78-76.89Q227.02-69.89 231.62-59.25L231.62-59.25L231.62-59.25Q236.10-49.06 238.39-41.94L238.39-41.94L238.39-41.94Q240.69-34.83 240.69-27.44L240.69-27.44L240.69-27.44Q240.69-20.27 237.89-13.72L237.89-13.72L237.89-13.72Q235.09-7.17 228.93-2.97L228.93-2.97L228.93-2.97Q222.77 1.23 213.36 1.23L213.36 1.23ZM287.95 2.69L287.95 2.69Q284.59 2.69 284.59-6.27L284.59-6.27L284.59-6.27Q284.59-10.98 285.38-15.68L285.38-15.68L285.38-15.68Q286.16-20.38 287.84-27.89L287.84-27.89L288.74-32.03L288.74-32.03Q286.83-28.34 284.26-22.62L284.26-22.62L284.26-22.62Q279.66-13.22 275.02-6.16L275.02-6.16L275.02-6.16Q270.37 0.90 265.78 0.90L265.78 0.90L265.78 0.90Q259.73 0.90 259.73-11.09L259.73-11.09L259.73-11.09Q259.73-25.98 264.54-45.92L264.54-45.92L266.34-52.75L266.34-52.75Q267.34-56.45 269.81-56.45L269.81-56.45L269.81-56.45Q271.15-56.45 271.71-54.54L271.71-54.54L271.71-54.54Q271.49-52.53 270.82-49.73L270.82-49.73L270.82-49.73Q270.14-46.93 269.92-45.70L269.92-45.70L269.92-45.70Q267.79-37.52 266.45-29.40L266.45-29.40L266.45-29.40Q265.10-21.28 264.88-9.63L264.88-9.63L264.88-9.63Q264.88-5.15 266.34-5.15L266.34-5.15L266.34-5.15Q268.46-5.15 272.05-10.14L272.05-10.14L272.05-10.14Q275.63-15.12 280.90-25.31L280.90-25.31L280.90-25.31Q286.05-36.40 290.75-45.30L290.75-45.30L290.75-45.30Q295.46-54.21 298.14-54.21L298.14-54.21L298.14-54.21Q300.05-54.21 300.05-52.08L300.05-52.08L300.05-52.08Q300.05-50.51 297.25-43.23L297.25-43.23L297.25-43.23Q295.12-37.74 294.45-35.28L294.45-35.28L294.45-35.28Q290.53-21.84 289.52-5.94L289.52-5.94L289.52-5.94Q289.52-4.48 289.80-3.75L289.80-3.75L289.80-3.75Q290.08-3.02 290.81-2.24L290.81-2.24L290.81-2.24Q291.54-1.46 291.54-0.34L291.54-0.34L291.54-0.34Q291.54 0.78 290.30 1.74L290.30 1.74L290.30 1.74Q289.07 2.69 287.95 2.69L287.95 2.69ZM321.33 1.12L321.33 1.12Q316.40 1.12 313.77-3.25L313.77-3.25L313.77-3.25Q311.14-7.62 311.14-14.11L311.14-14.11L311.14-14.11Q311.14-18.93 311.70-23.58L311.70-23.58L311.70-23.58Q312.26-28.22 313.38-34.61L313.38-34.61L313.82-37.52L313.82-37.52Q315.50-48.05 316.62-53.87L316.62-53.87L316.62-53.87Q316.85-55.33 317.07-56.45L317.07-56.45L317.07-56.45Q317.30-57.57 317.41-58.46L317.41-58.46L317.41-58.46Q318.42-63.73 319.20-66.98L319.20-66.98L319.20-66.98Q319.76-70.34 322.11-81.65L322.11-81.65L322.11-81.65Q323.90-89.60 326.70-105.73L326.70-105.73L326.70-105.73Q327.49-107.52 328.94-107.52L328.94-107.52L328.94-107.52Q331.86-107.52 331.86-105.06L331.86-105.06L331.63-104.27L331.63-104.27Q328.94-86.13 325.36-70L325.36-70L325.36-70Q321.33-51.97 319.42-42.45L319.42-42.45L319.42-42.45Q323.23-49.28 326.70-52.81L326.70-52.81L326.70-52.81Q330.18-56.34 334.32-56.34L334.32-56.34L334.32-56.34Q338.46-56.34 340.98-53.14L340.98-53.14L340.98-53.14Q343.50-49.95 343.50-45.81L343.50-45.81L343.50-45.81Q343.50-37.18 340.87-26.15L340.87-26.15L340.87-26.15Q338.24-15.12 333.98-8.18L333.98-8.18L333.98-8.18Q328.38 1.12 321.33 1.12L321.33 1.12ZM321.33-4.59L321.33-4.59Q325.36-4.59 329.39-11.31L329.39-11.31L329.39-11.31Q334.77-19.94 337.01-33.60L337.01-33.60L337.01-33.60Q337.57-37.86 337.57-41.66L337.57-41.66L337.57-41.66Q337.57-46.26 336.73-48.55L336.73-48.55L336.73-48.55Q335.89-50.85 333.65-50.85L333.65-50.85L333.65-50.85Q331.30-50.85 327.66-46.87L327.66-46.87L327.66-46.87Q324.02-42.90 321.10-37.02L321.10-37.02L321.10-37.02Q318.19-31.14 317.63-25.98L317.63-25.98L317.63-25.98Q316.85-18.48 316.85-14.11L316.85-14.11L316.85-14.11Q316.85-4.59 321.33-4.59L321.33-4.59Z" fill="url(#editing-shiny-gradient)"></path></g></g><g filter="url(#editing-shiny2)"><g transform="translate(73.82500267028809, 132.34500122070312)"><path d="M23.63 0.22L23.63 0.22Q22.40-8.96 21.84-14.56L21.84-14.56L21.84-14.56Q20.94-21.95 15.46-59.36L15.46-59.36L15.46-59.36Q10.08-95.54 8.85-105.39L8.85-105.39L8.85-105.39Q9.18-106.40 10.14-107.24L10.14-107.24L10.14-107.24Q11.09-108.08 11.87-108.08L11.87-108.08L11.87-108.08Q13.44-108.08 14-106.18L14-106.18L14-106.18Q14.90-96.77 16.74-83.94L16.74-83.94L16.74-83.94Q18.59-71.12 21.73-50.96L21.73-50.96L21.73-50.96Q26.21-22.51 28-7.84L28-7.84L28-7.84Q47.49-38.53 55.22-61.49L55.22-61.49L55.22-61.49Q58.35-70.67 59.58-76.27L59.58-76.27L59.58-76.27Q60.82-81.87 60.82-87.81L60.82-87.81L60.82-87.81Q60.82-91.50 60.31-96.88L60.31-96.88L60.31-96.88Q59.81-102.26 59.14-108.53L59.14-108.53L59.14-108.53Q59.14-109.87 60.09-110.94L60.09-110.94L60.09-110.94Q61.04-112 62.05-112L62.05-112L62.05-112Q63.95-112 64.29-110.10L64.29-110.10L64.29-110.10Q65.74-101.36 65.74-92.62L65.74-92.62L65.74-92.62Q65.74-77.62 60.98-62.55L60.98-62.55L60.98-62.55Q56.22-47.49 46.03-28.45L46.03-28.45L46.03-28.45Q36.74-11.54 27.89 0L27.89 0L27.89 0Q26.43 1.79 25.31 1.79L25.31 1.79L25.31 1.79Q24.19 1.79 23.63 0.22L23.63 0.22ZM86.58 1.01L86.58 1.01Q80.75 1.01 77.90-3.58L77.90-3.58L77.90-3.58Q75.04-8.18 75.04-14.56L75.04-14.56L75.04-14.56Q75.04-24.75 78.46-34.33L78.46-34.33L78.46-34.33Q81.87-43.90 87.81-50.18L87.81-50.18L87.81-50.18Q93.52-56.56 100.69-56.56L100.69-56.56L100.69-56.56Q110.99-56.56 110.99-40.88L110.99-40.88L110.99-40.88Q110.99-33.04 108.42-24.86L108.42-24.86L108.42-24.86Q105.84-16.69 101.75-10.30L101.75-10.30L101.75-10.30Q97.66-3.92 93.30-1.12L93.30-1.12L93.30-1.12Q89.94 1.01 86.58 1.01L86.58 1.01ZM87.47-4.03L87.47-4.03Q90.94-4.03 95.26-10.08L95.26-10.08L95.26-10.08Q99.57-16.13 102.48-25.09L102.48-25.09L102.48-25.09Q105.50-34.05 105.50-40.32L105.50-40.32L105.50-40.32Q105.50-46.82 104.72-48.38L104.72-48.38L104.72-48.38Q104.05-50.06 103.04-50.74L103.04-50.74L103.04-50.74Q102.03-51.41 99.90-51.41L99.90-51.41L99.90-51.41Q97.55-51.41 94.98-49.62L94.98-49.62L94.98-49.62Q89.82-46.37 86.02-38.42L86.02-38.42L86.02-38.42Q80.08-26.54 80.08-15.34L80.08-15.34L80.08-15.34Q80.08-7.73 84.45-4.82L84.45-4.82L84.45-4.82Q86.02-4.03 87.47-4.03L87.47-4.03ZM128.80 0.45L128.80 0.45Q124.88 0.45 122.92-1.57L122.92-1.57L122.92-1.57Q120.96-3.58 120.96-8.85L120.96-8.85L120.96-8.85Q120.96-11.76 121.63-15.57L121.63-15.57L122.64-21.95L123.87-27.22L124.54-30.24L126-36.40L126-36.40Q126.22-37.86 127.01-41.10L127.01-41.10L127.57-43.34L128.58-48.16L129.25-51.52L129.25-51.52Q124.88-51.52 121.18-50.96L121.18-50.96L121.18-50.96Q118.94-51.30 118.94-52.86L118.94-52.86L118.94-52.86Q118.94-53.98 119.84-54.99L119.84-54.99L119.84-54.99Q120.74-56 121.97-56.11L121.97-56.11L130.03-55.89L130.03-55.89Q130.03-55.89 130.59-58.69L130.59-58.69L130.59-58.69Q130.82-60.93 131.49-63.84L131.49-63.84L131.49-63.84Q132.16-66.75 133.17-68.99L133.17-68.99L133.17-68.99Q134.18-71.46 136.08-71.46L136.08-71.46L136.08-71.46Q137.87-71.46 137.87-69.44L137.87-69.44L137.87-68.77L137.87-68.77Q137.42-66.53 137.09-65.52L137.09-65.52L135.18-56L143.25-56L143.25-56Q147.50-56 148.51-55.33L148.51-55.33L148.51-55.33Q149.41-54.66 149.41-53.65L149.41-53.65L149.41-53.65Q149.41-51.86 147.78-51.35L147.78-51.35L147.78-51.35Q146.16-50.85 142.24-50.85L142.24-50.85L142.24-50.85Q138.66-50.85 134.29-51.18L134.29-51.18L134.29-51.18Q133.62-47.49 129.70-30.69L129.70-30.69L129.70-30.69Q126.11-15.46 126.11-11.42L126.11-11.42L126.11-11.42Q126.11-7.06 127.12-5.71L127.12-5.71L127.12-5.71Q127.68-4.82 129.47-4.82L129.47-4.82L129.47-4.82Q131.04-4.82 132.22-5.66L132.22-5.66L132.22-5.66Q133.39-6.50 134.62-7.95L134.62-7.95L134.62-7.95Q135.86-9.52 136.75-10.30L136.75-10.30L136.75-10.30Q137.65-11.09 138.66-11.09L138.66-11.09L138.66-11.09Q140.90-11.09 140.90-8.85L140.90-8.85L140.90-8.85Q140.90-7.73 138.66-5.15L138.66-5.15L138.66-5.15Q136.42-2.58 134.40-1.01L134.40-1.01L134.40-1.01Q132.61 0.45 128.80 0.45L128.80 0.45ZM164.64 1.12L164.64 1.12Q161.06 1.12 159.04-0.06L159.04-0.06L159.04-0.06Q157.02-1.23 155.79-3.70L155.79-3.70L155.79-3.70Q153.44-8.06 153.44-14.22L153.44-14.22L153.44-14.22Q153.44-24.98 156.69-34.66L156.69-34.66L156.69-34.66Q159.94-44.35 165.54-50.96L165.54-50.96L165.54-50.96Q170.91-57.23 177.30-57.23L177.30-57.23L177.30-57.23Q180.66-57.23 182.62-54.49L182.62-54.49L182.62-54.49Q184.58-51.74 184.58-47.82L184.58-47.82L184.58-47.82Q184.58-40.99 181.05-35.95L181.05-35.95L181.05-35.95Q177.52-30.91 171.58-27.55L171.58-27.55L171.58-27.55Q166.43-24.53 159.04-21.50L159.04-21.50L158.82-13.44L158.82-13.44Q158.82-4.03 164.53-4.03L164.53-4.03L164.53-4.03Q166.88-4.03 169.06-4.93L169.06-4.93L169.06-4.93Q171.25-5.82 173.82-7.39L173.82-7.39L173.82-7.39Q176.85-9.18 178.08-9.18L178.08-9.18L178.08-9.18Q179.98-9.18 179.98-7.17L179.98-7.17L179.98-7.17Q179.98-5.71 177.24-3.70L177.24-3.70L177.24-3.70Q174.50-1.68 170.80-0.28L170.80-0.28L170.80-0.28Q167.10 1.12 164.64 1.12L164.64 1.12ZM159.94-26.88L159.94-26.88Q167.44-29.90 171.36-32.26L171.36-32.26L171.36-32.26Q175.28-34.61 177.35-38.19L177.35-38.19L177.35-38.19Q179.42-41.78 179.42-47.60L179.42-47.60L179.42-47.60Q179.42-51.97 175.73-51.97L175.73-51.97L175.73-51.97Q172.48-51.97 168.11-46.03L168.11-46.03L168.11-46.03Q163.52-40.10 160.72-30.46L160.72-30.46L160.72-30.46Q159.94-27.78 159.94-26.88L159.94-26.88ZM213.36 1.23L213.36 1.23Q205.63 1.23 199.19-1.34L199.19-1.34L199.19-1.34Q192.75-3.92 189-8.90L189-8.90L189-8.90Q185.25-13.89 185.25-20.72L185.25-20.72L185.25-20.72Q185.25-31.36 191.63-39.09L191.63-39.09L191.63-39.09Q193.54-41.44 195.78-43.57L195.78-43.57L195.78-43.57Q198.02-45.70 199.36-45.70L199.36-45.70L199.36-45.70Q201.49-45.70 201.49-43.79L201.49-43.79L201.49-43.79Q201.49-42.90 201.04-42.22L201.04-42.22L201.04-42.22Q195.44-37.18 193.03-32.48L193.03-32.48L193.03-32.48Q190.62-27.78 190.62-22.29L190.62-22.29L190.62-22.29Q190.62-12.88 197.29-8.29L197.29-8.29L197.29-8.29Q203.95-3.70 213.92-3.70L213.92-3.70L213.92-3.70Q220.30-3.70 225.18-7L225.18-7L225.18-7Q230.05-10.30 232.68-15.90L232.68-15.90L232.68-15.90Q235.31-21.50 235.31-28L235.31-28L235.31-28Q235.31-37.86 226.24-58.80L226.24-58.80L226.24-58.80Q217.17-79.97 217.17-88.26L217.17-88.26L217.17-88.26Q217.17-96.88 221.31-102.59L221.31-102.59L221.31-102.59Q225.46-108.30 233.18-108.30L233.18-108.30L233.18-108.30Q239.12-108.30 243.10-105.34L243.10-105.34L243.10-105.34Q247.07-102.37 248.98-98.62L248.98-98.62L248.98-98.62Q250.88-94.86 250.88-92.51L250.88-92.51L250.88-92.51Q250.88-91.39 249.93-90.55L249.93-90.55L249.93-90.55Q248.98-89.71 247.97-89.71L247.97-89.71L247.97-89.71Q246.29-89.71 245.95-91.73L245.95-91.73L245.95-91.73Q245.17-96.88 241.70-100.24L241.70-100.24L241.70-100.24Q238.22-103.60 233.18-103.60L233.18-103.60L233.18-103.60Q228.14-103.60 225.34-100.07L225.34-100.07L225.34-100.07Q222.54-96.54 222.54-91.28L222.54-91.28L222.54-91.28Q222.54-83.89 224.78-76.89L224.78-76.89L224.78-76.89Q227.02-69.89 231.62-59.25L231.62-59.25L231.62-59.25Q236.10-49.06 238.39-41.94L238.39-41.94L238.39-41.94Q240.69-34.83 240.69-27.44L240.69-27.44L240.69-27.44Q240.69-20.27 237.89-13.72L237.89-13.72L237.89-13.72Q235.09-7.17 228.93-2.97L228.93-2.97L228.93-2.97Q222.77 1.23 213.36 1.23L213.36 1.23ZM287.95 2.69L287.95 2.69Q284.59 2.69 284.59-6.27L284.59-6.27L284.59-6.27Q284.59-10.98 285.38-15.68L285.38-15.68L285.38-15.68Q286.16-20.38 287.84-27.89L287.84-27.89L288.74-32.03L288.74-32.03Q286.83-28.34 284.26-22.62L284.26-22.62L284.26-22.62Q279.66-13.22 275.02-6.16L275.02-6.16L275.02-6.16Q270.37 0.90 265.78 0.90L265.78 0.90L265.78 0.90Q259.73 0.90 259.73-11.09L259.73-11.09L259.73-11.09Q259.73-25.98 264.54-45.92L264.54-45.92L266.34-52.75L266.34-52.75Q267.34-56.45 269.81-56.45L269.81-56.45L269.81-56.45Q271.15-56.45 271.71-54.54L271.71-54.54L271.71-54.54Q271.49-52.53 270.82-49.73L270.82-49.73L270.82-49.73Q270.14-46.93 269.92-45.70L269.92-45.70L269.92-45.70Q267.79-37.52 266.45-29.40L266.45-29.40L266.45-29.40Q265.10-21.28 264.88-9.63L264.88-9.63L264.88-9.63Q264.88-5.15 266.34-5.15L266.34-5.15L266.34-5.15Q268.46-5.15 272.05-10.14L272.05-10.14L272.05-10.14Q275.63-15.12 280.90-25.31L280.90-25.31L280.90-25.31Q286.05-36.40 290.75-45.30L290.75-45.30L290.75-45.30Q295.46-54.21 298.14-54.21L298.14-54.21L298.14-54.21Q300.05-54.21 300.05-52.08L300.05-52.08L300.05-52.08Q300.05-50.51 297.25-43.23L297.25-43.23L297.25-43.23Q295.12-37.74 294.45-35.28L294.45-35.28L294.45-35.28Q290.53-21.84 289.52-5.94L289.52-5.94L289.52-5.94Q289.52-4.48 289.80-3.75L289.80-3.75L289.80-3.75Q290.08-3.02 290.81-2.24L290.81-2.24L290.81-2.24Q291.54-1.46 291.54-0.34L291.54-0.34L291.54-0.34Q291.54 0.78 290.30 1.74L290.30 1.74L290.30 1.74Q289.07 2.69 287.95 2.69L287.95 2.69ZM321.33 1.12L321.33 1.12Q316.40 1.12 313.77-3.25L313.77-3.25L313.77-3.25Q311.14-7.62 311.14-14.11L311.14-14.11L311.14-14.11Q311.14-18.93 311.70-23.58L311.70-23.58L311.70-23.58Q312.26-28.22 313.38-34.61L313.38-34.61L313.82-37.52L313.82-37.52Q315.50-48.05 316.62-53.87L316.62-53.87L316.62-53.87Q316.85-55.33 317.07-56.45L317.07-56.45L317.07-56.45Q317.30-57.57 317.41-58.46L317.41-58.46L317.41-58.46Q318.42-63.73 319.20-66.98L319.20-66.98L319.20-66.98Q319.76-70.34 322.11-81.65L322.11-81.65L322.11-81.65Q323.90-89.60 326.70-105.73L326.70-105.73L326.70-105.73Q327.49-107.52 328.94-107.52L328.94-107.52L328.94-107.52Q331.86-107.52 331.86-105.06L331.86-105.06L331.63-104.27L331.63-104.27Q328.94-86.13 325.36-70L325.36-70L325.36-70Q321.33-51.97 319.42-42.45L319.42-42.45L319.42-42.45Q323.23-49.28 326.70-52.81L326.70-52.81L326.70-52.81Q330.18-56.34 334.32-56.34L334.32-56.34L334.32-56.34Q338.46-56.34 340.98-53.14L340.98-53.14L340.98-53.14Q343.50-49.95 343.50-45.81L343.50-45.81L343.50-45.81Q343.50-37.18 340.87-26.15L340.87-26.15L340.87-26.15Q338.24-15.12 333.98-8.18L333.98-8.18L333.98-8.18Q328.38 1.12 321.33 1.12L321.33 1.12ZM321.33-4.59L321.33-4.59Q325.36-4.59 329.39-11.31L329.39-11.31L329.39-11.31Q334.77-19.94 337.01-33.60L337.01-33.60L337.01-33.60Q337.57-37.86 337.57-41.66L337.57-41.66L337.57-41.66Q337.57-46.26 336.73-48.55L336.73-48.55L336.73-48.55Q335.89-50.85 333.65-50.85L333.65-50.85L333.65-50.85Q331.30-50.85 327.66-46.87L327.66-46.87L327.66-46.87Q324.02-42.90 321.10-37.02L321.10-37.02L321.10-37.02Q318.19-31.14 317.63-25.98L317.63-25.98L317.63-25.98Q316.85-18.48 316.85-14.11L316.85-14.11L316.85-14.11Q316.85-4.59 321.33-4.59L321.33-4.59Z" fill="url(#editing-shiny-gradient2)"></path></g></g><style>text {
  font-size: 64px;
  font-family: Arial Black;
  dominant-baseline: central;
  text-anchor: middle;
  line-height: 3.5;
}</style></svg>
